<svg data-logo="logo" xmlns="http://www.w3.org/2000/svg" viewBox="0 0 286 41">
        <g style="opacity: 1;" id="logogram" transform="translate(0, 3.5) rotate(0)"><path d="M15.4992 0H36.5808L21.0816 22.9729H0L15.4992 0Z" fill="#3D9BFF"></path><path d="M16.4224 25.102L10.4192 34H32.5008L48 11.0271H31.7024L22.2064 25.102H16.4224Z" fill="#4340CE"></path></g>
        <g style="opacity: 1;" id="logotype" transform="translate(54, 1)"><path fill="#ffffff" d="M14.47 32L8.13 32L8.13 7.01L22.98 7.01Q25.53 7.01 27.46 7.80Q29.38 8.58 30.40 10.12Q31.41 11.66 31.41 13.90L31.41 13.90Q31.41 15.72 30.66 17.14Q29.91 18.56 28.45 19.47Q27.00 20.38 24.83 20.66L24.83 20.66L24.83 20.17Q26.72 20.38 27.88 20.85Q29.03 21.32 29.73 22.23Q30.43 23.14 30.89 24.61L30.89 24.61L33.06 32L26.44 32L24.66 25.95Q24.24 24.44 23.29 23.70Q22.35 22.97 20.77 22.97L20.77 22.97L14.47 22.97L14.47 32ZM14.47 11.91L14.47 18.03L21.82 18.03Q22.63 18.03 23.31 17.72Q23.99 17.41 24.41 16.72Q24.83 16.04 24.83 14.99L24.83 14.99Q24.83 13.41 23.94 12.66Q23.05 11.91 21.82 11.91L21.82 11.91L14.47 11.91ZM44.75 32.49L44.75 32.49Q41.46 32.49 39.13 31.30Q36.80 30.11 35.56 27.96Q34.32 25.80 34.32 23.00L34.32 23.00Q34.32 21.32 34.75 19.87Q35.19 18.42 36.07 17.25Q36.94 16.07 38.22 15.23Q39.50 14.39 41.12 13.96Q42.75 13.52 44.75 13.52L44.75 13.52Q48.07 13.52 50.40 14.73Q52.73 15.93 53.95 18.07Q55.18 20.20 55.18 23.00L55.18 23.00Q55.18 24.68 54.72 26.16Q54.27 27.63 53.41 28.78Q52.55 29.93 51.29 30.77Q50.03 31.61 48.37 32.05Q46.71 32.49 44.75 32.49ZM44.75 28.15L44.75 28.15Q45.62 28.15 46.30 27.92Q46.99 27.70 47.51 27.24Q48.04 26.79 48.39 26.17Q48.74 25.56 48.91 24.74Q49.09 23.91 49.09 23.00L49.09 23.00Q49.09 21.39 48.60 20.24Q48.11 19.09 47.14 18.47Q46.18 17.86 44.75 17.86L44.75 17.86Q43.87 17.86 43.17 18.09Q42.47 18.31 41.98 18.75Q41.49 19.19 41.12 19.82Q40.76 20.45 40.58 21.24Q40.41 22.02 40.41 23.00L40.41 23.00Q40.41 24.58 40.90 25.73Q41.39 26.89 42.35 27.52Q43.31 28.15 44.75 28.15ZM75.37 32L57.17 32L57.17 27.41L70.51 15.23L73.69 18.17L57.52 18.17L57.52 14.01L75.02 14.01L75.02 18.59L61.62 30.74L58.54 27.84L75.37 27.84L75.37 32ZM87.87 39.14L87.87 39.14Q85.00 39.14 82.88 38.44Q80.76 37.74 79.52 36.45Q78.28 35.15 77.96 33.37L77.96 33.37L83.95 33.37Q84.26 34.17 85.26 34.63Q86.26 35.08 87.90 35.08L87.90 35.08Q89.09 35.08 90 34.73Q90.91 34.38 91.44 33.59Q91.96 32.80 91.96 31.61L91.96 31.61L91.96 26.89L92.56 27.80Q91.96 28.92 91.00 29.73Q90.04 30.53 88.71 30.97Q87.38 31.41 85.66 31.41L85.66 31.41Q83.42 31.41 81.55 30.36Q79.68 29.30 78.54 27.31Q77.40 25.31 77.40 22.48L77.40 22.48Q77.40 20.73 77.82 19.31Q78.24 17.89 79.01 16.84Q79.78 15.79 80.81 15.04Q81.84 14.29 83.07 13.90Q84.30 13.52 85.66 13.52L85.66 13.52Q87.38 13.52 88.72 13.97Q90.07 14.43 91.02 15.22Q91.96 16.00 92.52 17.09L92.52 17.09L91.96 18L91.96 14.01L97.98 14.01L97.98 31.41Q97.98 33.54 97.16 34.98Q96.34 36.41 94.92 37.34Q93.50 38.27 91.68 38.70Q89.86 39.14 87.87 39.14ZM87.76 27.06L87.76 27.06Q88.53 27.06 89.21 26.87Q89.90 26.68 90.42 26.29Q90.95 25.91 91.31 25.35Q91.68 24.79 91.87 24.05Q92.07 23.32 92.07 22.48L92.07 22.48Q92.07 20.98 91.54 19.94Q91.02 18.91 90.05 18.37Q89.09 17.82 87.76 17.82L87.76 17.82Q86.99 17.82 86.31 18.02Q85.63 18.21 85.08 18.59Q84.54 18.98 84.17 19.54Q83.81 20.10 83.63 20.84Q83.46 21.57 83.46 22.48L83.46 22.48Q83.46 23.91 83.98 24.95Q84.51 25.98 85.47 26.52Q86.43 27.06 87.76 27.06ZM107.22 32.49L107.22 32.49Q104.25 32.49 102.57 31.07Q100.89 29.66 100.89 27.27L100.89 27.27Q100.89 25.66 101.66 24.49Q102.43 23.32 104.00 22.55Q105.58 21.78 107.92 21.46L107.92 21.46L112.37 20.91Q113.14 20.77 113.52 20.40Q113.91 20.03 113.91 19.40L113.91 19.40L113.91 19.36Q113.91 18.73 113.56 18.30Q113.21 17.86 112.54 17.65Q111.88 17.44 110.90 17.44L110.90 17.44Q109.50 17.44 108.62 17.81Q107.75 18.17 107.57 19.09L107.57 19.09L101.66 19.09Q101.97 17.16 103.21 15.93Q104.46 14.71 106.45 14.11Q108.45 13.52 111.04 13.52L111.04 13.52Q113.98 13.52 115.95 14.27Q117.93 15.02 118.89 16.55Q119.86 18.07 119.86 20.41L119.86 20.41L119.86 32L114.22 32L114.22 27.38L114.82 28.04Q114.15 29.59 113.05 30.55Q111.95 31.51 110.48 32Q109.01 32.49 107.22 32.49ZM109.32 28.36L109.32 28.36Q110.37 28.36 111.23 27.99Q112.09 27.63 112.70 27.01Q113.31 26.40 113.61 25.63Q113.91 24.86 113.91 24.02L113.91 24.02L113.91 21.74L114.85 22.90Q114.43 23.32 113.82 23.53Q113.21 23.74 111.98 23.98L111.98 23.98L109.04 24.51Q107.99 24.75 107.45 25.24Q106.91 25.73 106.91 26.47L106.91 26.47Q106.91 27.38 107.57 27.87Q108.24 28.36 109.32 28.36ZM129.34 32L123.32 32L123.32 14.01L129.34 14.01L129.34 19.96L128.92 19.75Q129.38 17.68 130.20 16.41Q131.02 15.13 132.28 14.57Q133.54 14.01 135.33 14.01L135.33 14.01L136.69 14.01L136.69 19.50L134.59 19.50Q132.95 19.50 131.77 20.20Q130.60 20.91 129.97 22.22Q129.34 23.53 129.34 25.38L129.34 25.38L129.34 32ZM154.44 32L139.70 32L139.70 7.01L154.47 7.01Q158.04 7.01 160.07 8.64Q162.10 10.26 162.10 13.10L162.10 13.10Q162.10 14.81 161.35 16.13Q160.60 17.44 159.13 18.23Q157.66 19.02 155.52 19.33L155.52 19.33L155.63 18.95Q157.90 18.98 159.60 19.77Q161.30 20.55 162.22 21.94Q163.15 23.32 163.15 25.11L163.15 25.11Q163.15 27.27 162.14 28.81Q161.12 30.36 159.16 31.18Q157.20 32 154.44 32L154.44 32ZM146.04 21.43L146.04 27.17L153.74 27.17Q154.58 27.17 155.24 26.79Q155.91 26.40 156.26 25.75Q156.61 25.11 156.61 24.30L156.61 24.30Q156.61 23.46 156.24 22.83Q155.87 22.20 155.24 21.81Q154.61 21.43 153.74 21.43L153.74 21.43L146.04 21.43ZM146.04 11.84L146.04 17.02L153.18 17.02Q153.95 17.02 154.54 16.67Q155.14 16.32 155.47 15.72Q155.80 15.13 155.80 14.36L155.80 14.36Q155.80 13.24 155.08 12.54Q154.37 11.84 153.14 11.84L153.14 11.84L146.04 11.84ZM171.66 32.49L171.66 32.49Q168.68 32.49 167.00 31.07Q165.32 29.66 165.32 27.27L165.32 27.27Q165.32 25.66 166.09 24.49Q166.86 23.32 168.44 22.55Q170.01 21.78 172.36 21.46L172.36 21.46L176.80 20.91Q177.57 20.77 177.96 20.40Q178.34 20.03 178.34 19.40L178.34 19.40L178.34 19.36Q178.34 18.73 177.99 18.30Q177.64 17.86 176.98 17.65Q176.31 17.44 175.33 17.44L175.33 17.44Q173.93 17.44 173.06 17.81Q172.18 18.17 172.01 19.09L172.01 19.09L166.09 19.09Q166.41 17.16 167.65 15.93Q168.89 14.71 170.89 14.11Q172.88 13.52 175.47 13.52L175.47 13.52Q178.41 13.52 180.39 14.27Q182.37 15.02 183.33 16.55Q184.29 18.07 184.29 20.41L184.29 20.41L184.29 32L178.66 32L178.66 27.38L179.25 28.04Q178.59 29.59 177.48 30.55Q176.38 31.51 174.91 32Q173.44 32.49 171.66 32.49ZM173.76 28.36L173.76 28.36Q174.81 28.36 175.66 27.99Q176.52 27.63 177.13 27.01Q177.75 26.40 178.04 25.63Q178.34 24.86 178.34 24.02L178.34 24.02L178.34 21.74L179.29 22.90Q178.87 23.32 178.25 23.53Q177.64 23.74 176.42 23.98L176.42 23.98L173.48 24.51Q172.43 24.75 171.88 25.24Q171.34 25.73 171.34 26.47L171.34 26.47Q171.34 27.38 172.01 27.87Q172.67 28.36 173.76 28.36ZM193.81 32L187.76 32L187.76 14.01L193.81 14.01L193.81 18.63L193.22 17.96Q193.85 16.46 194.93 15.48Q196.02 14.50 197.47 14.01Q198.92 13.52 200.53 13.52L200.53 13.52Q202.32 13.52 203.65 14.06Q204.98 14.60 205.83 15.60Q206.69 16.60 207.15 18.02Q207.60 19.43 207.60 21.25L207.60 21.25L207.60 32L201.58 32L201.58 22.23Q201.58 20.94 201.16 20.05Q200.74 19.16 199.94 18.66Q199.13 18.17 197.98 18.17L197.98 18.17Q196.68 18.17 195.74 18.75Q194.79 19.33 194.30 20.33Q193.81 21.32 193.81 22.59L193.81 22.59L193.81 32ZM220.69 32.49L220.69 32.49Q217.40 32.49 215.07 31.30Q212.75 30.11 211.50 27.96Q210.26 25.80 210.26 23.00L210.26 23.00Q210.26 21.32 210.70 19.87Q211.14 18.42 212.01 17.25Q212.89 16.07 214.16 15.23Q215.44 14.39 217.07 13.96Q218.70 13.52 220.69 13.52L220.69 13.52Q224.02 13.52 226.34 14.73Q228.67 15.93 229.90 18.07Q231.12 20.20 231.12 23.00L231.12 23.00Q231.12 24.68 230.67 26.16Q230.21 27.63 229.35 28.78Q228.50 29.93 227.24 30.77Q225.98 31.61 224.31 32.05Q222.65 32.49 220.69 32.49ZM220.69 28.15L220.69 28.15Q221.57 28.15 222.25 27.92Q222.93 27.70 223.46 27.24Q223.98 26.79 224.33 26.17Q224.68 25.56 224.86 24.74Q225.03 23.91 225.03 23.00L225.03 23.00Q225.03 21.39 224.54 20.24Q224.05 19.09 223.09 18.47Q222.13 17.86 220.69 17.86L220.69 17.86Q219.82 17.86 219.12 18.09Q218.42 18.31 217.93 18.75Q217.44 19.19 217.07 19.82Q216.70 20.45 216.53 21.24Q216.35 22.02 216.35 23.00L216.35 23.00Q216.35 24.58 216.84 25.73Q217.33 26.89 218.29 27.52Q219.26 28.15 220.69 28.15Z"></path></g>
        
      </svg>