<?xml version="1.0" encoding="UTF-8"?>
<svg version="1.1" xmlns="http://www.w3.org/2000/svg" width="536" height="174">
<path d="M0 0 C176.88 0 353.76 0 536 0 C536 57.42 536 114.84 536 174 C359.12 174 182.24 174 0 174 C0 116.58 0 59.16 0 0 Z " fill="#FDFDFE" transform="translate(0,0)"/>
<path d="M0 0 C9.04993214 -0.09316324 18.09969622 -0.16399776 27.15000534 -0.20724869 C31.35359529 -0.22801934 35.55685433 -0.25614127 39.76025391 -0.30175781 C43.82571866 -0.34559542 47.89086751 -0.36921597 51.9565506 -0.37950897 C53.49852717 -0.38683302 55.04048876 -0.40113284 56.5823288 -0.42292023 C73.03457477 -0.64590797 86.29984159 3.42323153 98.4375 15 C107.24124724 24.39544512 110.7320462 36.03781375 110.32421875 48.79296875 C109.67991238 55.16616787 107.66665048 60.45615611 103 65 C100.07812334 66.82996428 97.08008626 68.45337549 94 70 C95.2375 70.20625 96.475 70.4125 97.75 70.625 C110.16602423 73.46628454 121.4539954 80.76781557 128.39453125 91.546875 C134.01752263 100.90376879 136 106.79330384 136 118 C119.83 118 103.66 118 87 118 C87 102.16 87 86.32 87 70 C84.03 69.67 81.06 69.34 78 69 C72.46230047 66.12465601 68.25674432 62.06818958 65.8671875 56.234375 C64.92424771 52.71746444 64.80084972 49.75836371 64.875 46.125 C64.89304687 44.97257812 64.91109375 43.82015625 64.9296875 42.6328125 C64.95289062 41.76398437 64.97609375 40.89515625 65 40 C63.69349487 40.0314209 63.69349487 40.0314209 62.3605957 40.06347656 C59.06344585 40.13250852 55.76708662 40.18220689 52.46948242 40.21972656 C51.054644 40.23958394 49.63988469 40.26667966 48.2253418 40.30175781 C36.41179327 40.58692689 24.27206961 39.77548069 14.8359375 31.8125 C8.02559624 25.08909927 0.31041892 16.01346435 -0.0793457 5.95169067 C-0.05289714 3.96779378 -0.02644857 1.98389689 0 0 Z " fill="#4465F5" transform="translate(31,22)"/>
<path d="M0 0 C0 22.11 0 44.22 0 67 C-13.53 67 -27.06 67 -41 67 C-41.103125 61.4725 -41.20625 55.945 -41.3125 50.25 C-41.35802002 48.53200195 -41.40354004 46.81400391 -41.45043945 45.04394531 C-41.65041786 32.09971263 -38.81875296 22.32314026 -30.2421875 12.2578125 C-21.05738898 3.00900841 -13.11137128 0 0 0 Z " fill="#091E7D" transform="translate(89,73)"/>
<path d="M0 0 C0.33 0 0.66 0 1 0 C1.33 21.45 1.66 42.9 2 65 C2.99 64.01 3.98 63.02 5 62 C6.9375 61.63671875 6.9375 61.63671875 9 61.6875 C10.0209375 61.69330078 10.0209375 61.69330078 11.0625 61.69921875 C13 62 13 62 16 64 C16.144375 63.401875 16.28875 62.80375 16.4375 62.1875 C16.8872439 60.43849596 17.42892341 58.71322977 18 57 C18.495 58.98 18.495 58.98 19 61 C20.65 61.33 22.3 61.66 24 62 C24.495 64.475 24.495 64.475 25 67 C27.06880642 63.89679038 27.25815578 63.15060522 27.31884766 59.62036133 C27.33871735 58.73967484 27.35858704 57.85898834 27.37905884 56.95161438 C27.39061005 56.00465195 27.40216125 55.05768951 27.4140625 54.08203125 C27.43342865 53.10965012 27.4527948 52.13726898 27.4727478 51.13542175 C27.5325555 48.02787056 27.5789339 44.92028235 27.625 41.8125 C27.66317867 39.706364 27.70223033 37.60024363 27.7421875 35.49414062 C27.83825811 30.32955395 27.92228491 25.16489418 28 20 C27.34 19.67 26.68 19.34 26 19 C26.99 19 27.98 19 29 19 C29 34.84 29 50.68 29 67 C33.29 67 37.58 67 42 67 C42.13536629 69.41854446 42.23420279 71.82949783 42.3125 74.25 C42.35439453 74.93191406 42.39628906 75.61382812 42.43945312 76.31640625 C42.53064095 80.07334471 42.31681254 81.6552817 39.73828125 84.4609375 C35.70301697 86.72897477 33.57647346 86.44288453 29 86 C26 84 26 84 25.1875 82 C25.125625 81.34 25.06375 80.68 25 80 C25.66 79.34 26.32 78.68 27 78 C26.01 77.34 25.02 76.68 24 76 C24 77.32 24 78.64 24 80 C21.125 80.125 21.125 80.125 18 80 C17.01 79.01 17.01 79.01 16 78 C14.515 78.99 14.515 78.99 13 80 C11.0625 80.265625 11.0625 80.265625 9 80.25 C8.319375 80.25515625 7.63875 80.2603125 6.9375 80.265625 C5 80 5 80 2 78 C2 77.34 2 76.68 2 76 C0.7315625 76.99 0.7315625 76.99 -0.5625 78 C-4.48265563 80.28081782 -6.54169018 80.50471432 -11 80 C-14 78 -14 78 -14.546875 76.16015625 C-14.61390625 75.46792969 -14.6809375 74.77570313 -14.75 74.0625 C-14.82734375 73.37285156 -14.9046875 72.68320313 -14.984375 71.97265625 C-15 70 -15 70 -14 67 C-9.38 67 -4.76 67 0 67 C0 44.89 0 22.78 0 0 Z " fill="#F4F4F6" transform="translate(89,73)"/>
<path d="M0 0 C13.125 -0.66964286 13.125 -0.66964286 16.6875 2.25 C18.57180352 4.49079337 19.98911897 6.27062123 21 9 C21.515625 8.34 22.03125 7.68 22.5625 7 C25 5 25 5 28.5 4.5625 C32.18665435 5.02333179 33.19989745 5.77922901 36 8 C38.20800528 7.78282648 38.20800528 7.78282648 40 7 C40 8.98 40 10.96 40 13 C42.64 13.99 45.28 14.98 48 16 C47.505 17.485 47.505 17.485 47 19 C44.36 18.67 41.72 18.34 39 18 C40.12109566 19.62493901 40.12109566 19.62493901 42 21 C45.95730595 21.42098999 48.60268371 21.09065618 52 19 C51 22 51 22 49 23 C41.53333333 23.35555556 41.53333333 23.35555556 38 21 C38 20.34 38 19.68 38 19 C37.34 19 36.68 19 36 19 C36 19.66 36 20.32 36 21 C32.58794404 23.09972674 29.9699753 23.33083127 26 23 C22.53742783 21.8128324 21.00886729 20.01330093 19 17 C18.21625 17.804375 17.4325 18.60875 16.625 19.4375 C12.82362535 23.14836573 11.07991636 23.11787145 5.875 23.0625 C2.966875 23.0315625 2.966875 23.0315625 0 23 C0 15.41 0 7.82 0 0 Z " fill="#F8F8F8" transform="translate(360,130)"/>
<path d="M0 0 C4.62891687 2.4180909 7.78379307 5.54805489 10.14453125 10.26953125 C10.51817771 15.87422816 10.35314123 19.45661628 7.14453125 24.26953125 C3.43489992 28.019705 0.23304311 30.0687128 -5.10546875 30.58203125 C-10.97785858 30.09266543 -14.27613346 27.92985809 -18.29296875 23.70703125 C-20.51179097 18.82562236 -20.61823046 14.54595506 -19.85546875 9.26953125 C-17.78581518 4.7162934 -15.09636945 2.19028683 -10.7109375 -0.03515625 C-6.97241557 -1.43611815 -3.72232145 -1.46541918 0 0 Z " fill="#182B85" transform="translate(498.85546875,56.73046875)"/>
<path d="M0 0 C3.77482849 1.45960035 5.74938409 3.62407613 8 7 C9.62111604 12.67390612 10.01710944 17.96578112 7.375 23.25 C4.28369276 26.82940839 1.6379151 29.53587849 -3.17578125 30.3828125 C-8.59189578 30.6558939 -11.84440605 29.68336736 -16 26 C-19.37099372 22.5576625 -21.32602983 19.43814412 -21.6875 14.5625 C-21.39624637 9.2471212 -18.64724418 5.70048862 -15 2 C-10.32856133 -1.11429245 -5.47003434 -0.59975277 0 0 Z " fill="#1A2D86" transform="translate(245,57)"/>
<path d="M0 0 C2.536875 -0.103125 5.07375 -0.20625 7.6875 -0.3125 C8.47729248 -0.35802002 9.26708496 -0.40354004 10.08081055 -0.45043945 C14.09111281 -0.52903306 15.64629421 -0.25803504 19.00390625 2.19140625 C21.2104509 5.29611389 21.54020762 6.52194821 21.25 10.25 C21.14701807 11.83217686 21.05868291 13.41556155 21 15 C21.33 15.33 21.66 15.66 22 16 C22.40038554 20.16400962 22.44184328 22.32250696 20.125 25.875 C17.20022672 28.79977328 16.54355241 28.98563551 12.3046875 29.09765625 C10.82808958 29.09193586 9.35151736 29.07895104 7.875 29.0625 C5.27625 29.041875 2.6775 29.02125 0 29 C0 19.43 0 9.86 0 0 Z " fill="#132782" transform="translate(393,57)"/>
<path d="M0 0 C15 0 15 0 21 4 C23.51105489 7.76658234 23.65269692 10.57098519 23 15 C21.4375 16.6875 21.4375 16.6875 20 18 C20.21078644 22.00494245 21.92061187 24.65489735 24 28 C24 28.66 24 29.32 24 30 C18.80642269 30.70421387 18.80642269 30.70421387 16 30 C14.2940348 28.06455217 13.23598209 26.16173952 12.10546875 23.84765625 C11.06983663 21.66120343 11.06983663 21.66120343 8 21 C8 23.97 8 26.94 8 30 C5.36 30 2.72 30 0 30 C0 20.1 0 10.2 0 0 Z " fill="#1F3289" transform="translate(350,56)"/>
<path d="M0 0 C2.64 0 5.28 0 8 0 C8 9.9 8 19.8 8 30 C5.69 30 3.38 30 1 30 C-0.890625 27.98828125 -0.890625 27.98828125 -2.25 25.3125 C-2.70890625 24.44238281 -3.1678125 23.57226562 -3.640625 22.67578125 C-4.08921875 21.79277344 -4.5378125 20.90976563 -5 20 C-5.99 18.35 -6.98 16.7 -8 15 C-8.33 19.95 -8.66 24.9 -9 30 C-11.31 30 -13.62 30 -16 30 C-16 20.43 -16 10.86 -16 1 C-13.36 1 -10.72 1 -8 1 C-5.6875 3.625 -5.6875 3.625 -4 7 C-3.4225 8.11375 -2.845 9.2275 -2.25 10.375 C-1.8375 11.24125 -1.425 12.1075 -1 13 C-0.67 8.71 -0.34 4.42 0 0 Z " fill="#1A2E86" transform="translate(466,56)"/>
<path d="M0 0 C2.51625 -0.103125 5.0325 -0.20625 7.625 -0.3125 C8.79603271 -0.38078003 8.79603271 -0.38078003 9.99072266 -0.45043945 C13.88295912 -0.52701938 16.35992314 -0.1545482 19.48828125 2.265625 C22 5 22 5 22.69140625 7.09765625 C22.4067199 11.4369664 21.72054096 13.68803709 19 17 C19.17617595 19.73072715 20.12975917 21.21280503 21.5625 23.5625 C23 26 23 26 23 29 C20.36 29 17.72 29 15 29 C14.75765625 28.43410156 14.5153125 27.86820313 14.265625 27.28515625 C13.93046875 26.55167969 13.5953125 25.81820312 13.25 25.0625 C12.92515625 24.33160156 12.6003125 23.60070312 12.265625 22.84765625 C10.97377317 20.52359666 10.97377317 20.52359666 7 20 C7 22.97 7 25.94 7 29 C4.69 29 2.38 29 0 29 C0 19.43 0 9.86 0 0 Z " fill="#142883" transform="translate(198,57)"/>
<path d="M0 0 C2.53937969 1.12697277 4.66021098 2.47197452 7 4 C7 5.32 7 6.64 7 8 C6.34 8.66 5.68 9.32 5 10 C3.3247643 9.71281674 1.65919896 9.36871088 0 9 C-4.65072325 8.59097148 -4.65072325 8.59097148 -8.9375 10.0625 C-10.6140629 13.11976176 -10.36528977 15.5906288 -10 19 C-9.08333333 21.08333333 -9.08333333 21.08333333 -7 22 C-3.37464024 22.2503577 -3.37464024 22.2503577 0 22 C-1.32 21.67 -2.64 21.34 -4 21 C-4 18.69 -4 16.38 -4 14 C1.28 14 6.56 14 12 14 C11.78938009 20.00266747 10.79231309 23.22398943 6.60546875 27.58984375 C3.38113175 30.42192564 0.76762056 30.91625957 -3.4375 31.375 C-8.88422704 30.80166031 -11.75545716 28.4127243 -15.3125 24.375 C-18.44806384 19.96198422 -18.64623811 16.32248886 -18 11 C-14.04645543 3.23933843 -8.67106504 -0.71074304 0 0 Z " fill="#182B85" transform="translate(302,56)"/>
<path d="M0 0 C2.97 0 5.94 0 9 0 C10.67792905 4.07879561 12.34037223 8.16372731 14 12.25 C14.47695313 13.40886719 14.95390625 14.56773438 15.4453125 15.76171875 C15.89648438 16.87675781 16.34765625 17.99179688 16.8125 19.140625 C17.23144531 20.16704102 17.65039062 21.19345703 18.08203125 22.25097656 C19 25 19 25 19 29 C16.69 29 14.38 29 12 29 C11.78601563 28.35546875 11.57203125 27.7109375 11.3515625 27.046875 C10.1526477 24.72160885 10.1526477 24.72160885 7.3984375 24.390625 C5.90183594 24.32101563 5.90183594 24.32101563 4.375 24.25 C3.37210937 24.19328125 2.36921875 24.1365625 1.3359375 24.078125 C0.17964844 24.03945312 0.17964844 24.03945312 -1 24 C-1.33 25.65 -1.66 27.3 -2 29 C-4.31 29 -6.62 29 -9 29 C-7.78483217 22.19506013 -5.61598921 16.00562168 -3.12060547 9.5859375 C-1.88120102 6.39247513 -0.83290794 3.33163178 0 0 Z " fill="#162A84" transform="translate(426,57)"/>
<path d="M0 0 C2.97 0 5.94 0 9 0 C11.89193504 6.00632663 14.1417704 12.1228206 16.25 18.4375 C16.52021973 19.24300293 16.79043945 20.04850586 17.06884766 20.87841797 C19 26.74142132 19 26.74142132 19 29 C16.36 29 13.72 29 11 29 C10.505 26.525 10.505 26.525 10 24 C6.37 24 2.74 24 -1 24 C-1.33 25.65 -1.66 27.3 -2 29 C-4.31 29 -6.62 29 -9 29 C-8.41066394 24.94012934 -7.52036888 21.24802636 -6.15234375 17.3828125 C-5.79462891 16.36445312 -5.43691406 15.34609375 -5.06835938 14.296875 C-4.50858398 12.72679688 -4.50858398 12.72679688 -3.9375 11.125 C-3.37192383 9.52011719 -3.37192383 9.52011719 -2.79492188 7.8828125 C-1.86766315 5.2536232 -0.93590193 2.62612238 0 0 Z " fill="#162A84" transform="translate(327,57)"/>
<path d="M0 0 C1.78083984 -0.00290039 1.78083984 -0.00290039 3.59765625 -0.00585938 C4.83386719 0.01798828 6.07007813 0.04183594 7.34375 0.06640625 C8.57996094 0.05544922 9.81617188 0.04449219 11.08984375 0.03320312 C20.16689168 0.10712045 20.16689168 0.10712045 23.20410156 2.44848633 C25.57468581 5.60091156 25.23759429 7.99511038 25.09375 11.87890625 C25.05765625 13.1421875 25.0215625 14.40546875 24.984375 15.70703125 C24.93796875 16.67125 24.8915625 17.63546875 24.84375 18.62890625 C22.53375 18.62890625 20.22375 18.62890625 17.84375 18.62890625 C17.84375 14.66890625 17.84375 10.70890625 17.84375 6.62890625 C16.85375 6.62890625 15.86375 6.62890625 14.84375 6.62890625 C14.84375 10.58890625 14.84375 14.54890625 14.84375 18.62890625 C12.53375 18.62890625 10.22375 18.62890625 7.84375 18.62890625 C7.575625 19.24765625 7.3075 19.86640625 7.03125 20.50390625 C5.84375 22.62890625 5.84375 22.62890625 2.84375 24.62890625 C-0.21868812 25.16469193 -3.0972111 25.19764453 -6.15625 24.62890625 C-8.71875 22.12890625 -8.71875 22.12890625 -10.15625 19.62890625 C-9.16625 18.14390625 -9.16625 18.14390625 -8.15625 16.62890625 C-8.15625 15.63890625 -8.15625 14.64890625 -8.15625 13.62890625 C-7.49625 14.28890625 -6.83625 14.94890625 -6.15625 15.62890625 C-2.01115567 15.91492787 -2.01115567 15.91492787 1.84375 14.62890625 C1.886471 16.2950253 1.88438832 17.9627351 1.84375 19.62890625 C0.84375 20.62890625 0.84375 20.62890625 -1.53125 20.69140625 C-2.3975 20.67078125 -3.26375 20.65015625 -4.15625 20.62890625 C-5.14625 20.62890625 -6.13625 20.62890625 -7.15625 20.62890625 C-2.24433055 22.61706412 -0.76301274 22.56336671 4.84375 21.62890625 C4.84375 15.35890625 4.84375 9.08890625 4.84375 2.62890625 C3.85375 2.29890625 2.86375 1.96890625 1.84375 1.62890625 C1.51375 2.61890625 1.18375 3.60890625 0.84375 4.62890625 C0.18375 3.96890625 -0.47625 3.30890625 -1.15625 2.62890625 C-3.69576544 2.72002563 -3.69576544 2.72002563 -6.15625 3.62890625 C-8.10135 6.54655625 -8.60901317 8.2542791 -9.15625 11.62890625 C-9.48625 11.62890625 -9.81625 11.62890625 -10.15625 11.62890625 C-10.49368149 8.00151773 -10.45067361 6.11051804 -8.52539062 2.96118164 C-5.52982658 0.01223035 -4.14661828 -0.0027718 0 0 Z " fill="#FCFCFC" transform="translate(431.15625,134.37109375)"/>
<path d="M0 0 C6.27 0 12.54 0 19 0 C19 6.75 19 6.75 16.8125 10.0859375 C16.13574219 11.13974609 16.13574219 11.13974609 15.4453125 12.21484375 C14.72988281 13.28412109 14.72988281 13.28412109 14 14.375 C13.28457031 15.47908203 13.28457031 15.47908203 12.5546875 16.60546875 C11.3818978 18.41156489 10.19256194 20.20689794 9 22 C12.3 22 15.6 22 19 22 C19 24.31 19 26.62 19 29 C12.4 29 5.8 29 -1 29 C-1 22.24413976 -1 22.24413976 0.8984375 19.3515625 C1.29546875 18.73925781 1.6925 18.12695312 2.1015625 17.49609375 C2.52179688 16.87863281 2.94203125 16.26117188 3.375 15.625 C3.7875 14.98433594 4.2 14.34367187 4.625 13.68359375 C5.68608697 12.07827186 6.83669811 10.53287072 8 9 C8.66 9 9.32 9 10 9 C10 8.01 10 7.02 10 6 C6.7 6 3.4 6 0 6 C0 4.02 0 2.04 0 0 Z " fill="#142883" transform="translate(260,57)"/>
<path d="M0 0 C3.68754757 0.49831724 5.60490662 1.10067643 8 4 C8.70125 3.34 9.4025 2.68 10.125 2 C13.52460766 -0.36494446 14.94587851 -0.67568691 19 0 C21.875 2 21.875 2 24 4 C24.33 2.68 24.66 1.36 25 0 C26.65 0 28.3 0 30 0 C29.01 0.33 28.02 0.66 27 1 C27 6.28 27 11.56 27 17 C27.99 16.67 28.98 16.34 30 16 C30.33 12.37 30.66 8.74 31 5 C31.99 4.67 32.98 4.34 34 4 C34 4.66 34 5.32 34 6 C33.34 6 32.68 6 32 6 C32 9.96 32 13.92 32 18 C29.69 18 27.38 18 25 18 C24.505 16.02 24.505 16.02 24 14 C23.505 14.66 23.01 15.32 22.5 16 C19.60608287 18.31513371 17.64903674 18.57117174 13.97265625 18.40625 C10.94184644 17.78208323 9.14552985 16.14552985 7 14 C6.484375 14.66 5.96875 15.32 5.4375 16 C3 18 3 18 -0.5 18.4375 C-4.06051786 17.99243527 -5.45687431 17.44140066 -8 15 C-7.67 14.34 -7.34 13.68 -7 13 C-6.484375 13.515625 -5.96875 14.03125 -5.4375 14.5625 C-2.95107865 16.31508365 -2.95107865 16.31508365 0.625 15.9375 C4.06990621 15.36680314 4.06990621 15.36680314 5.4375 12.9375 C5.7159375 11.9784375 5.7159375 11.9784375 6 11 C5.071875 11.515625 4.14375 12.03125 3.1875 12.5625 C0 14 0 14 -3 13 C-2.67 12.34 -2.34 11.68 -2 11 C-1.01 11.33 -0.02 11.66 1 12 C1 11.34 1 10.68 1 10 C2.98 10 4.96 10 7 10 C5.71567661 6.50294871 5.71567661 6.50294871 4 3 C3.01 2.67 2.02 2.34 1 2 C0.67 2.99 0.34 3.98 0 5 C0 3.35 0 1.7 0 0 Z " fill="#FAFAFA" transform="translate(167,135)"/>
<path d="M0 0 C9.04993214 -0.09316324 18.09969622 -0.16399776 27.15000534 -0.20724869 C31.35359529 -0.22801934 35.55685433 -0.25614127 39.76025391 -0.30175781 C43.82571866 -0.34559542 47.89086751 -0.36921597 51.9565506 -0.37950897 C53.49852717 -0.38683302 55.04048876 -0.40113284 56.5823288 -0.42292023 C66.04051879 -0.55111309 74.14673018 0.25816963 83 4 C80 5 80 5 76.8125 4.0625 C72.57635329 2.88193452 69.36465301 2.84685428 65 3 C65 2.34 65 1.68 65 1 C49.16 1.66 33.32 2.32 17 3 C16.67 5.64 16.34 8.28 16 11 C15 12 15 12 11.9375 12.0625 C10.968125 12.041875 9.99875 12.02125 9 12 C9 8.7 9 5.4 9 2 C8.01 2.495 8.01 2.495 7 3 C6.53348793 5.12576782 6.53348793 5.12576782 6.375 7.5625 C6.30023438 8.38878906 6.22546875 9.21507812 6.1484375 10.06640625 C6.09945312 10.70449219 6.05046875 11.34257813 6 12 C5.34 12 4.68 12 4 12 C4.99 14.97 5.98 17.94 7 21 C4.23116958 18.23116958 3.24265612 16.80295766 1.8125 13.3125 C1.46832031 12.50425781 1.12414063 11.69601563 0.76953125 10.86328125 C-0.23273916 7.13402129 -0.04860353 3.86139006 0 0 Z " fill="#859BF3" transform="translate(31,22)"/>
<path d="M0 0 C1.09054687 0.02320312 2.18109375 0.04640625 3.3046875 0.0703125 C4.40039062 0.08835937 5.49609375 0.10640625 6.625 0.125 C7.46804688 0.14820312 8.31109375 0.17140625 9.1796875 0.1953125 C9.26058292 2.96672967 9.32012812 5.73579069 9.3671875 8.5078125 C9.40489258 9.68633789 9.40489258 9.68633789 9.44335938 10.88867188 C9.45786133 12.0246582 9.45786133 12.0246582 9.47265625 13.18359375 C9.49622192 14.22833862 9.49622192 14.22833862 9.52026367 15.29418945 C9.06898877 17.81324154 8.19133554 18.65379202 6.1796875 20.1953125 C2.61011177 21.0390304 0.20734132 21.59056397 -3.2578125 20.2578125 C-4.03125 19.731875 -4.03125 19.731875 -4.8203125 19.1953125 C-4.8203125 18.5353125 -4.8203125 17.8753125 -4.8203125 17.1953125 C-1.8503125 17.1953125 1.1196875 17.1953125 4.1796875 17.1953125 C4.1796875 16.2053125 4.1796875 15.2153125 4.1796875 14.1953125 C3.4578125 14.4634375 2.7359375 14.7315625 1.9921875 15.0078125 C-0.8203125 15.1953125 -0.8203125 15.1953125 -3.6953125 13.2578125 C-5.90498355 10.07328657 -6.13203268 9.60557848 -5.7578125 6.0078125 C-4.35463755 0.3015677 -4.35463755 0.3015677 0 0 Z " fill="#FDFDFD" transform="translate(256.8203125,17.8046875)"/>
<path d="M0 0 C1.11395264 3.71646118 1.11395264 3.71646118 0.08837891 6.26831055 C-1.29881033 9.74997504 -1.35276775 13.01366197 -1.4140625 16.70703125 C-1.43342865 17.43242599 -1.4527948 18.15782074 -1.4727478 18.90519714 C-1.53222108 21.20751422 -1.57879845 23.50988219 -1.625 25.8125 C-1.66320958 27.37957832 -1.70226303 28.94663631 -1.7421875 30.51367188 C-1.83789563 34.34228152 -1.92204448 38.17098942 -2 42 C-0.35 42 1.3 42 3 42 C3 39.36 3 36.72 3 34 C14.34799403 33.60337108 14.34799403 33.60337108 18 36 C19.3125 38.625 19.3125 38.625 20 41 C21.175625 40.649375 22.35125 40.29875 23.5625 39.9375 C27.65466227 38.92171504 30.86324862 38.94553396 35 40 C35.99 40.99 36.98 41.98 38 43 C24.47 43 10.94 43 -3 43 C-3.061875 37.39 -3.12375 31.78 -3.1875 26 C-3.22846802 23.36837891 -3.22846802 23.36837891 -3.27026367 20.68359375 C-3.27903851 19.26823613 -3.28668008 17.85287085 -3.29296875 16.4375 C-3.30831665 15.72271484 -3.32366455 15.00792969 -3.33947754 14.27148438 C-3.34221679 8.90985565 -2.10468355 4.9327762 0 0 Z " fill="#47579D" transform="translate(51,97)"/>
<path d="M0 0 C3.87891882 0.63473217 5.05804913 1.51680289 7.4375 4.5625 C7.7675 3.2425 8.0975 1.9225 8.4375 0.5625 C10.0875 0.5625 11.7375 0.5625 13.4375 0.5625 C12.7775 1.2225 12.1175 1.8825 11.4375 2.5625 C11.13150937 5.13166657 10.92662913 7.61008384 10.8125 10.1875 C10.77382813 10.89390625 10.73515625 11.6003125 10.6953125 12.328125 C10.60102276 14.07248524 10.51817109 15.81745691 10.4375 17.5625 C11.4275 17.2325 12.4175 16.9025 13.4375 16.5625 C13.7675 12.9325 14.0975 9.3025 14.4375 5.5625 C15.4275 5.2325 16.4175 4.9025 17.4375 4.5625 C19.4375 6.5625 19.4375 6.5625 19.6328125 9.1640625 C19.60960937 10.16179687 19.58640625 11.15953125 19.5625 12.1875 C19.54445313 13.19039062 19.52640625 14.19328125 19.5078125 15.2265625 C19.48460937 15.99742187 19.46140625 16.76828125 19.4375 17.5625 C20.4275 17.5625 21.4175 17.5625 22.4375 17.5625 C22.4375 13.9325 22.4375 10.3025 22.4375 6.5625 C23.7575 5.9025 25.0775 5.2425 26.4375 4.5625 C28.4375 6.5625 28.4375 6.5625 28.6328125 9.1640625 C28.60960937 10.16179687 28.58640625 11.15953125 28.5625 12.1875 C28.54445313 13.19039062 28.52640625 14.19328125 28.5078125 15.2265625 C28.48460937 15.99742187 28.46140625 16.76828125 28.4375 17.5625 C29.7575 17.5625 31.0775 17.5625 32.4375 17.5625 C32.32373383 15.43686897 32.19614369 13.3119739 32.0625 11.1875 C31.95808594 9.41246094 31.95808594 9.41246094 31.8515625 7.6015625 C31.73532654 4.45687681 31.73532654 4.45687681 29.4375 2.5625 C27.42196803 2.79006006 25.40603629 3.02461545 23.40234375 3.33984375 C21.18552356 3.59105399 19.56030512 3.19147929 17.4375 2.5625 C16.4475 2.8925 15.4575 3.2225 14.4375 3.5625 C14.4375 2.5725 14.4375 1.5825 14.4375 0.5625 C17.04228883 0.4815687 19.64456653 0.42204566 22.25 0.375 C22.98798828 0.34986328 23.72597656 0.32472656 24.48632812 0.29882812 C27.40319447 0.25923265 29.81003808 0.23896495 32.4375 1.59375 C34.01880779 4.70694971 33.74885525 7.84874416 33.625 11.25 C33.60469727 12.3028418 33.60469727 12.3028418 33.58398438 13.37695312 C33.54870182 15.10579829 33.49489583 16.83424765 33.4375 18.5625 C31.4575 18.5625 29.4775 18.5625 27.4375 18.5625 C26.17512269 16.03774538 26.33893596 14.25049534 26.375 11.4375 C26.38402344 10.52742187 26.39304687 9.61734375 26.40234375 8.6796875 C26.41394531 7.98101562 26.42554688 7.28234375 26.4375 6.5625 C25.7775 6.5625 25.1175 6.5625 24.4375 6.5625 C24.4375 10.5225 24.4375 14.4825 24.4375 18.5625 C22.4575 18.5625 20.4775 18.5625 18.4375 18.5625 C18.38851563 17.78003906 18.33953125 16.99757812 18.2890625 16.19140625 C18.21429688 15.17949219 18.13953125 14.16757813 18.0625 13.125 C17.99289062 12.11566406 17.92328125 11.10632813 17.8515625 10.06640625 C17.71492188 9.24011719 17.57828125 8.41382813 17.4375 7.5625 C16.7775 7.2325 16.1175 6.9025 15.4375 6.5625 C15.4375 10.5225 15.4375 14.4825 15.4375 18.5625 C13.1275 18.5625 10.8175 18.5625 8.4375 18.5625 C8.1075 17.2425 7.7775 15.9225 7.4375 14.5625 C7.1075 15.2225 6.7775 15.8825 6.4375 16.5625 C5.7775 16.2325 5.1175 15.9025 4.4375 15.5625 C4.7675 14.9025 5.0975 14.2425 5.4375 13.5625 C6.08085154 8.11823572 6.08085154 8.11823572 3.8125 3.5 C0.61078648 2.23616572 -1.26832367 2.67032724 -4.5625 3.5625 C-6.84730253 4.53598627 -6.84730253 4.53598627 -8.5625 5.5625 C-5.78582332 2.1968313 -4.38582657 0.69249893 0 0 Z " fill="#F0F0F0" transform="translate(490.5625,134.4375)"/>
<path d="M0 0 C3.06965937 2.28591655 4.68875582 3.75502329 5.625 7.5 C4.68875582 11.24497671 3.06965937 12.71408345 0 15 C-3.5625 15.625 -3.5625 15.625 -7 15 C-9.96135546 12.41830549 -10.86756104 10.81118865 -11.5 6.9375 C-11 4 -11 4 -9.4375 1.625 C-6.02544071 -0.64970619 -4.02388226 -0.63534983 0 0 Z " fill="#F6F7FA" transform="translate(497,64)"/>
<path d="M0 0 C0.98226563 0.00257812 1.96453125 0.00515625 2.9765625 0.0078125 C4.44222656 0.00394531 4.44222656 0.00394531 5.9375 0 C8.6015625 0.1328125 8.6015625 0.1328125 11.6015625 1.1328125 C12.5709375 0.9265625 13.5403125 0.7203125 14.5390625 0.5078125 C17.6015625 0.1328125 17.6015625 0.1328125 19.77734375 1.12890625 C22.05355179 3.62932322 22.017031 5.4213802 21.953125 8.72851562 C21.91960937 9.41880859 21.88609375 10.10910156 21.8515625 10.8203125 C21.83351563 11.52220703 21.81546875 12.22410156 21.796875 12.94726562 C21.74982463 14.67636686 21.67808123 16.40476455 21.6015625 18.1328125 C19.6215625 18.1328125 17.6415625 18.1328125 15.6015625 18.1328125 C15.6015625 14.8328125 15.6015625 11.5328125 15.6015625 8.1328125 C15.9315625 8.1328125 16.2615625 8.1328125 16.6015625 8.1328125 C16.6015625 11.1028125 16.6015625 14.0728125 16.6015625 17.1328125 C17.9215625 17.1328125 19.2415625 17.1328125 20.6015625 17.1328125 C20.46126831 14.9866099 20.31418086 12.84085032 20.1640625 10.6953125 C20.08285156 9.50035156 20.00164062 8.30539063 19.91796875 7.07421875 C19.92500136 4.24711006 19.92500136 4.24711006 18.6015625 3.1328125 C16.60203492 3.08934451 14.60116262 3.0928205 12.6015625 3.1328125 C11.6115625 3.1328125 10.6215625 3.1328125 9.6015625 3.1328125 C8.4671875 3.1534375 7.3328125 3.1740625 6.1640625 3.1953125 C2.6015625 3.1328125 2.6015625 3.1328125 -1.3984375 2.1328125 C-1.3984375 7.0828125 -1.3984375 12.0328125 -1.3984375 17.1328125 C-0.0784375 17.1328125 1.2415625 17.1328125 2.6015625 17.1328125 C2.54935547 15.97652344 2.54935547 15.97652344 2.49609375 14.796875 C2.46902344 13.79398438 2.44195312 12.79109375 2.4140625 11.7578125 C2.36185547 10.26121094 2.36185547 10.26121094 2.30859375 8.734375 C2.45361328 7.44660156 2.45361328 7.44660156 2.6015625 6.1328125 C3.5915625 5.4728125 4.5815625 4.8128125 5.6015625 4.1328125 C7.6015625 6.1328125 7.6015625 6.1328125 7.796875 8.734375 C7.77367187 9.73210938 7.75046875 10.72984375 7.7265625 11.7578125 C7.70851563 12.76070312 7.69046875 13.76359375 7.671875 14.796875 C7.64867187 15.56773438 7.62546875 16.33859375 7.6015625 17.1328125 C8.5915625 17.4628125 9.5815625 17.7928125 10.6015625 18.1328125 C9.2815625 18.1328125 7.9615625 18.1328125 6.6015625 18.1328125 C4.89377907 14.71724564 4.97868342 10.90402167 4.6015625 7.1328125 C4.2715625 10.7628125 3.9415625 14.3928125 3.6015625 18.1328125 C1.2915625 18.1328125 -1.0184375 18.1328125 -3.3984375 18.1328125 C-3.7284375 16.8128125 -4.0584375 15.4928125 -4.3984375 14.1328125 C-4.9553125 15.091875 -4.9553125 15.091875 -5.5234375 16.0703125 C-7.3984375 18.1328125 -7.3984375 18.1328125 -10.2109375 19.0703125 C-14.04901402 19.1455689 -16.13580208 18.07485739 -19.3984375 16.1328125 C-19.0684375 15.4728125 -18.7384375 14.8128125 -18.3984375 14.1328125 C-16.9134375 15.1228125 -16.9134375 15.1228125 -15.3984375 16.1328125 C-12.36984921 16.44829045 -10.28762682 16.62339971 -7.5859375 15.1328125 C-6.04477762 12.5371748 -5.91175551 10.0370471 -5.64453125 7.0703125 C-5.15740026 3.23512249 -4.02629078 0.22295421 0 0 Z " fill="#F0F0F0" transform="translate(331.3984375,15.8671875)"/>
<path d="M0 0 C2.4375 1.5625 2.4375 1.5625 4 4 C4.56288002 7.94016013 4.60396028 10.05782196 2.4375 13.4375 C-0.94217804 15.60396028 -3.05983987 15.56288002 -7 15 C-9.4375 13.4375 -9.4375 13.4375 -11 11 C-11.56288002 7.05983987 -11.60396028 4.94217804 -9.4375 1.5625 C-6.05782196 -0.60396028 -3.94016013 -0.56288002 0 0 Z " fill="#F9FAFC" transform="translate(243,64)"/>
<path d="M0 0 C2.4375 1.5625 2.4375 1.5625 4 3 C4.70125 2.34 5.4025 1.68 6.125 1 C9.49827337 -1.34662495 10.97749297 -1.59909679 15 -1 C17.375 0.5 17.375 0.5 19 2 C18.67 2.66 18.34 3.32 18 4 C17.34 3.34 16.68 2.68 16 2 C14.08993694 1.6823754 14.08993694 1.6823754 12 1.75 C11.29875 1.74484375 10.5975 1.7396875 9.875 1.734375 C7.7564331 1.84294485 7.7564331 1.84294485 6 4 C5.72657107 6.07346793 5.72657107 6.07346793 5.6875 8.375 C5.36082351 11.87832375 5.21898877 12.74972712 2.8125 15.5 C-0.28115733 17.14995058 -2.49756476 17.8509602 -6 18 C-8.375 17.0625 -8.375 17.0625 -10 16 C-8 15 -8 15 -4.5625 15.25 C-3.386875 15.1675 -2.21125 15.085 -1 15 C1.00864359 12.6273026 1.00864359 12.6273026 2 10 C1.2575 10.515625 0.515 11.03125 -0.25 11.5625 C-3 13 -3 13 -5.25 12.75 C-7 12 -7 12 -8 11 C-7.71269945 8.66055264 -7.38063221 6.3260857 -7 4 C-5.3125 3.3125 -5.3125 3.3125 -3 3 C-0.25 4.4375 -0.25 4.4375 2 6 C0.98239527 3.86124923 0.98239527 3.86124923 -1 2 C-5.61955375 1.368369 -5.61955375 1.368369 -9.70703125 3.234375 C-11.38461342 5.52521228 -11.30956805 6.87993475 -11.1875 9.6875 C-11.16042969 10.49574219 -11.13335937 11.30398437 -11.10546875 12.13671875 C-11.07066406 12.75160156 -11.03585937 13.36648437 -11 14 C-11.66 13.67 -12.32 13.34 -13 13 C-13.46782178 4.89108911 -13.46782178 4.89108911 -11.6875 1.5 C-7.97587253 -1.79922441 -4.56091047 -0.96019168 0 0 Z " fill="#F1F1F1" transform="translate(307,17)"/>
<path d="M0 0 C3.68754757 0.49831724 5.60490662 1.10067643 8 4 C8.70125 3.34 9.4025 2.68 10.125 2 C13.52460766 -0.36494446 14.94587851 -0.67568691 19 0 C21.875 2 21.875 2 24 4 C24.33 2.68 24.66 1.36 25 0 C26.65 0 28.3 0 30 0 C29.01 0.33 28.02 0.66 27 1 C27 6.28 27 11.56 27 17 C27.99 16.67 28.98 16.34 30 16 C30.33 12.37 30.66 8.74 31 5 C31.99 4.67 32.98 4.34 34 4 C34 4.66 34 5.32 34 6 C33.34 6 32.68 6 32 6 C32 9.96 32 13.92 32 18 C29.69 18 27.38 18 25 18 C24.505 16.02 24.505 16.02 24 14 C23.67 14.66 23.34 15.32 23 16 C22.34 15.67 21.68 15.34 21 15 C21.33 14.34 21.66 13.68 22 13 C22.64335154 7.55573572 22.64335154 7.55573572 20.375 2.9375 C17.19296594 1.68143392 15.25787048 2.07929747 12 3 C9.75675164 4.81193006 9.75675164 4.81193006 9.8046875 7.3828125 C9.82789063 8.28773438 9.85109375 9.19265625 9.875 10.125 C9.90207031 11.49011719 9.90207031 11.49011719 9.9296875 12.8828125 C9.95289063 13.58148438 9.97609375 14.28015625 10 15 C9.01 14.67 8.02 14.34 7 14 C6.484375 14.66 5.96875 15.32 5.4375 16 C3 18 3 18 -0.5 18.4375 C-4.06051786 17.99243527 -5.45687431 17.44140066 -8 15 C-7.67 14.34 -7.34 13.68 -7 13 C-6.484375 13.515625 -5.96875 14.03125 -5.4375 14.5625 C-2.95107865 16.31508365 -2.95107865 16.31508365 0.625 15.9375 C4.06990621 15.36680314 4.06990621 15.36680314 5.4375 12.9375 C5.7159375 11.9784375 5.7159375 11.9784375 6 11 C5.071875 11.515625 4.14375 12.03125 3.1875 12.5625 C0 14 0 14 -3 13 C-2.67 12.34 -2.34 11.68 -2 11 C-1.01 11.33 -0.02 11.66 1 12 C1 11.34 1 10.68 1 10 C2.98 10 4.96 10 7 10 C5.71567661 6.50294871 5.71567661 6.50294871 4 3 C3.01 2.67 2.02 2.34 1 2 C0.67 2.99 0.34 3.98 0 5 C0 3.35 0 1.7 0 0 Z " fill="#EFEFF0" transform="translate(167,135)"/>
<path d="M0 0 C4.27077656 -0.05794812 8.54145236 -0.09357874 12.8125 -0.125 C14.02744141 -0.14175781 15.24238281 -0.15851563 16.49414062 -0.17578125 C17.65751953 -0.18222656 18.82089844 -0.18867188 20.01953125 -0.1953125 C21.62985229 -0.21102295 21.62985229 -0.21102295 23.27270508 -0.22705078 C26 0 26 0 29 2 C31.87057251 2.31788492 31.87057251 2.31788492 35 2.25 C36.051875 2.25515625 37.10375 2.2603125 38.1875 2.265625 C41.20650379 2.20467017 41.20650379 2.20467017 44 0 C44.99 0 45.98 0 47 0 C47 1.32 47 2.64 47 4 C31.49 4 15.98 4 0 4 C0 2.68 0 1.36 0 0 Z " fill="#2D4DE7" transform="translate(119,135)"/>
<path d="M0 0 C2 2 2 2 2.25 5.4375 C2 9 2 9 0 12 C-3.4375 12.4375 -3.4375 12.4375 -7 12 C-9.66266871 9.76679398 -9.95347082 8.3799883 -10.375 4.9375 C-10 2 -10 2 -8.9375 0.0625 C-5.81651045 -1.6490104 -3.35466116 -0.79291991 0 0 Z " fill="#4D6BF4" transform="translate(408,98)"/>
<path d="M0 0 C2 2 2 2 2.375 5.4375 C2 9 2 9 0.3125 10.9375 C-2.41818887 12.19214083 -4.02932151 12.45702746 -7 12 C-8.8125 10.9375 -8.8125 10.9375 -10 9 C-10.36841966 5.56141649 -10.58367385 3.09868019 -8.9375 0 C-5.80557344 -1.61647822 -3.32814714 -0.78665296 0 0 Z " fill="#5874F4" transform="translate(317,98)"/>
<path d="M0 0 C0.33 0.99 0.66 1.98 1 3 C-1.64 2.67 -4.28 2.34 -7 2 C-7 2.99 -7 3.98 -7 5 C-4.36 5.66 -1.72 6.32 1 7 C1 6.34 1 5.68 1 5 C1.99 5.33 2.98 5.66 4 6 C3.66156193 9.04594267 2.76208715 10.29909045 0.8125 12.75 C-2 15 -2 15 -5.0625 15.5 C-8.24602727 14.95812302 -9.72941062 14.27058938 -12 12 C-12 11.34 -12 10.68 -12 10 C-9.03 10.33 -6.06 10.66 -3 11 C-2.67 10.34 -2.34 9.68 -2 9 C-3.11375 8.87625 -4.2275 8.7525 -5.375 8.625 C-9 8 -9 8 -11 6 C-10.8125 3.5 -10.8125 3.5 -10 1 C-6.1496895 -1.56687367 -4.41430237 -0.83288724 0 0 Z " fill="#FCFCFC" transform="translate(103,137)"/>
<path d="M0 0 C2 2 2 2 2.375 4.875 C2 8 2 8 0.3125 10.375 C-2 12 -2 12 -4.5625 12.5 C-7 12 -7 12 -8.8125 10.375 C-10.33264845 7.3347031 -10.42888292 5.35958291 -10 2 C-7.65131237 -2.28290097 -4.2151329 -0.99630414 0 0 Z " fill="#4F6CF4" transform="translate(245,98)"/>
<path d="M0 0 C0.99 0 1.98 0 3 0 C3.33 1.65 3.66 3.3 4 5 C4.433125 4.175 4.86625 3.35 5.3125 2.5 C5.869375 1.675 6.42625 0.85 7 0 C7.99 0 8.98 0 10 0 C10.33 1.98 10.66 3.96 11 6 C11.66 6 12.32 6 13 6 C13 4.35 13 2.7 13 1 C14.32 0.67 15.64 0.34 17 0 C16.34 3.63 15.68 7.26 15 11 C13.35 11.33 11.7 11.66 10 12 C9.34 10.35 8.68 8.7 8 7 C7.67 8.65 7.34 10.3 7 12 C5.35 12 3.7 12 2 12 C0.70756464 7.8803623 -0.26252625 4.33168317 0 0 Z " fill="#3F5FF3" transform="translate(374,97)"/>
<path d="M0 0 C1.74023438 0.08701172 1.74023438 0.08701172 3.515625 0.17578125 C5.27132813 0.24345703 5.27132813 0.24345703 7.0625 0.3125 C8.40054687 0.39951172 8.40054687 0.39951172 9.765625 0.48828125 C9.88200536 3.73797894 9.95293081 6.98713955 10.015625 10.23828125 C10.04914063 11.15867188 10.08265625 12.0790625 10.1171875 13.02734375 C10.21552197 19.81242251 10.21552197 19.81242251 8.03125 23.09375 C4.32915833 25.37245125 0.96551692 25.42073432 -3.234375 24.48828125 C-5.796875 21.98828125 -5.796875 21.98828125 -7.234375 19.48828125 C-6.244375 18.00328125 -6.244375 18.00328125 -5.234375 16.48828125 C-5.234375 15.49828125 -5.234375 14.50828125 -5.234375 13.48828125 C-4.574375 14.14828125 -3.914375 14.80828125 -3.234375 15.48828125 C0.91071933 15.77430287 0.91071933 15.77430287 4.765625 14.48828125 C4.808346 16.1544003 4.80626332 17.8221101 4.765625 19.48828125 C3.765625 20.48828125 3.765625 20.48828125 1.390625 20.55078125 C0.524375 20.53015625 -0.341875 20.50953125 -1.234375 20.48828125 C-2.224375 20.48828125 -3.214375 20.48828125 -4.234375 20.48828125 C0.67754445 22.47643912 2.15886226 22.42274171 7.765625 21.48828125 C7.765625 15.21828125 7.765625 8.94828125 7.765625 2.48828125 C6.775625 2.15828125 5.785625 1.82828125 4.765625 1.48828125 C4.435625 2.47828125 4.105625 3.46828125 3.765625 4.48828125 C3.105625 3.82828125 2.445625 3.16828125 1.765625 2.48828125 C-0.77389044 2.57940063 -0.77389044 2.57940063 -3.234375 3.48828125 C-5.179475 6.40593125 -5.68713817 8.1136541 -6.234375 11.48828125 C-6.564375 11.48828125 -6.894375 11.48828125 -7.234375 11.48828125 C-7.57021458 7.87800576 -7.51305622 5.95821428 -5.640625 2.80078125 C-3.234375 0.48828125 -3.234375 0.48828125 0 0 Z " fill="#F0F0F0" transform="translate(428.234375,134.51171875)"/>
<path d="M0 0 C1.32 0 2.64 0 4 0 C4.66 1.32 5.32 2.64 6 4 C6.33 2.68 6.66 1.36 7 0 C7.99 0 8.98 0 10 0 C9.34 3.96 8.68 7.92 8 12 C6.68 12 5.36 12 4 12 C3.34 10.35 2.68 8.7 2 7 C1.34 8.98 0.68 10.96 0 13 C-1.32 13 -2.64 13 -4 13 C-4.66 9.04 -5.32 5.08 -6 1 C-5.01 1.33 -4.02 1.66 -3 2 C-2.67 2.99 -2.34 3.98 -2 5 C-1.34 3.35 -0.68 1.7 0 0 Z " fill="#5471F4" transform="translate(261,97)"/>
<path d="M0 0 C2.97 0 5.94 0 9 0 C9.33 0.66 9.66 1.32 10 2 C8.35 2.33 6.7 2.66 5 3 C4.67 17.85 4.34 32.7 4 48 C19.51 48 35.02 48 51 48 C51 45.03 51 42.06 51 39 C51.33 39 51.66 39 52 39 C52 42.3 52 45.6 52 49 C35.83 49 19.66 49 3 49 C3 33.16 3 17.32 3 1 C2.01 0.67 1.02 0.34 0 0 Z " fill="#889DF6" transform="translate(115,91)"/>
<path d="M0 0 C1.77074917 -0.02705729 3.54161711 -0.04642195 5.3125 -0.0625 C6.29863281 -0.07410156 7.28476562 -0.08570313 8.30078125 -0.09765625 C11 0 11 0 14 1 C16.3406065 0.72230092 18.67624308 0.39460023 21 0 C21.33 0.66 21.66 1.32 22 2 C15.375 3 15.375 3 12 3 C10.865625 3.020625 9.73125 3.04125 8.5625 3.0625 C5 3 5 3 1 2 C1 6.95 1 11.9 1 17 C2.32 17 3.64 17 5 17 C4.96519531 16.22914062 4.93039063 15.45828125 4.89453125 14.6640625 C4.86746094 13.66117188 4.84039062 12.65828125 4.8125 11.625 C4.77769531 10.62726562 4.74289063 9.62953125 4.70703125 8.6015625 C4.85205078 7.31378906 4.85205078 7.31378906 5 6 C5.99 5.34 6.98 4.68 8 4 C8.66 4.66 9.32 5.32 10 6 C9.9765625 8.3828125 9.9765625 8.3828125 9.625 11.125 C9.45871094 12.49011719 9.45871094 12.49011719 9.2890625 13.8828125 C9.14597656 14.93082031 9.14597656 14.93082031 9 16 C8.67 16 8.34 16 8 16 C7.67 13.03 7.34 10.06 7 7 C6.67 10.63 6.34 14.26 6 18 C3.69 18 1.38 18 -1 18 C-1.33 17.01 -1.66 16.02 -2 15 C-3.98 15.99 -3.98 15.99 -6 17 C-4.68 14.03 -3.36 11.06 -2 8 C-1.67 8 -1.34 8 -1 8 C-0.67 5.36 -0.34 2.72 0 0 Z " fill="#F1F1F1" transform="translate(22,16)"/>
<path d="M0 0 C3.66564743 0.39274794 6.76045597 2.34423305 10 4 C10.33 4 10.66 4 11 4 C11.33 6.31 11.66 8.62 12 11 C11.01 11 10.02 11 9 11 C8.4225 11.495 7.845 11.99 7.25 12.5 C4.04217146 14.63855236 1.77641384 14.40461577 -2 14 C-4.4375 12.5 -4.4375 12.5 -6 11 C-5.67 10.34 -5.34 9.68 -5 9 C-4.484375 9.515625 -3.96875 10.03125 -3.4375 10.5625 C-0.95107865 12.31508365 -0.95107865 12.31508365 2.625 11.9375 C6.06990621 11.36680314 6.06990621 11.36680314 7.4375 8.9375 C7.7159375 7.9784375 7.7159375 7.9784375 8 7 C7.2575 7.515625 6.515 8.03125 5.75 8.5625 C3 10 3 10 0.6875 9.6875 C0.130625 9.460625 -0.42625 9.23375 -1 9 C-1.625 5.625 -1.625 5.625 -2 2 C-1.34 1.34 -0.68 0.68 0 0 Z " fill="#F7F7F7" transform="translate(472,139)"/>
<path d="M0 0 C6 0 6 0 7.875 1.0625 C9.64273274 4.1069286 9.36823916 6.5631012 9 10 C7.875 11.9375 7.875 11.9375 6 13 C4.02 13 2.04 13 0 13 C0 8.71 0 4.42 0 0 Z " fill="#F7F7F7" transform="translate(500,16)"/>
<path d="M0 0 C0.33 1.32 0.66 2.64 1 4 C2.65 4.33 4.3 4.66 6 5 C6 10.94 6 16.88 6 23 C4.02 23 2.04 23 0 23 C0.01160156 21.83082031 0.02320313 20.66164062 0.03515625 19.45703125 C0.04453913 17.90885577 0.0536388 16.36067855 0.0625 14.8125 C0.07087891 14.04357422 0.07925781 13.27464844 0.08789062 12.48242188 C0.10504106 8.48636958 -0.15463373 4.92219485 -1 1 C-0.67 0.67 -0.34 0.34 0 0 Z " fill="#F6F6F6" transform="translate(414,130)"/>
<path d="M0 0 C0.99 0 1.98 0 3 0 C3 0.66 3 1.32 3 2 C5.64 2.66 8.28 3.32 11 4 C11 4.99 11 5.98 11 7 C8.36 6.67 5.72 6.34 3 6 C3.66 7.32 4.32 8.64 5 10 C4.01 9.67 3.02 9.34 2 9 C2 8.34 2 7.68 2 7 C1.34 7 0.68 7 0 7 C-0.20625 7.639375 -0.4125 8.27875 -0.625 8.9375 C-2 11 -2 11 -4.9375 11.875 C-8 12 -8 12 -11 10 C-10.04287109 9.81824219 -10.04287109 9.81824219 -9.06640625 9.6328125 C-8.24011719 9.46523438 -7.41382813 9.29765625 -6.5625 9.125 C-5.32693359 8.88136719 -5.32693359 8.88136719 -4.06640625 8.6328125 C-3.38449219 8.42398437 -2.70257813 8.21515625 -2 8 C-1.67 7.34 -1.34 6.68 -1 6 C-3.64 6.33 -6.28 6.66 -9 7 C-9.33 5.68 -9.66 4.36 -10 3 C-6.7 3 -3.4 3 0 3 C0 2.01 0 1.02 0 0 Z " fill="#EFEFEF" transform="translate(225,23)"/>
<path d="M0 0 C-0.33 0.99 -0.66 1.98 -1 3 C-2.65 3 -4.3 3 -6 3 C-6.33 4.65 -6.66 6.3 -7 8 C-6.01 8 -5.02 8 -4 8 C-4 7.01 -4 6.02 -4 5 C-2.02 5 -0.04 5 2 5 C2 7.31 2 9.62 2 12 C-6.21324503 12.61986755 -6.21324503 12.61986755 -9.0625 10.375 C-10.25768801 7.34719037 -10.41213321 5.2283768 -10 2 C-7.64463991 -2.2950684 -4.23605512 -0.87918125 0 0 Z " fill="#6881F5" transform="translate(207,98)"/>
<path d="M0 0 C6 0 6 0 9 2 C9.29296875 4.6015625 9.29296875 4.6015625 9.1875 7.625 C9.16042969 8.62789062 9.13335937 9.63078125 9.10546875 10.6640625 C9.07066406 11.43492188 9.03585937 12.20578125 9 13 C7.68 13 6.36 13 5 13 C5 11.68 5 10.36 5 9 C4.34 9 3.68 9 3 9 C3 10.32 3 11.64 3 13 C2.01 13 1.02 13 0 13 C0 8.71 0 4.42 0 0 Z " fill="#4A68F4" transform="translate(419,97)"/>
<path d="M0 0 C1.91541138 -0.10841951 3.83259773 -0.18578079 5.75 -0.25 C6.81734375 -0.29640625 7.8846875 -0.3428125 8.984375 -0.390625 C12 0 12 0 14.375 1.5625 C16.60751644 4.91127466 16.39761062 7.26451318 16.25 11.25 C16.21390625 12.51328125 16.1778125 13.7765625 16.140625 15.078125 C16.07101562 16.52445313 16.07101562 16.52445313 16 18 C13.69 18 11.38 18 9 18 C9 14.04 9 10.08 9 6 C8.01 6 7.02 6 6 6 C6 9.96 6 13.92 6 18 C4.02 18 2.04 18 0 18 C0.33 17.34 0.66 16.68 1 16 C1.99 16.33 2.98 16.66 4 17 C4 13.37 4 9.74 4 6 C5.65 5.34 7.3 4.68 9 4 C10.73956658 5.73956658 10.37190386 8.1936622 10.5625 10.5625 C10.64628906 11.57441406 10.73007812 12.58632812 10.81640625 13.62890625 C10.87699219 14.41136719 10.93757813 15.19382813 11 16 C11.99 16 12.98 16 14 16 C14.02708567 14.39592672 14.04643483 12.7917215 14.0625 11.1875 C14.07410156 10.29417969 14.08570313 9.40085938 14.09765625 8.48046875 C14.11009967 5.86586209 14.11009967 5.86586209 13 3 C9.62182575 2.15545644 7.32534757 1.89155081 4 3 C4 2.34 4 1.68 4 1 C2.68 0.67 1.36 0.34 0 0 Z " fill="#F0F0F0" transform="translate(440,135)"/>
<path d="M0 0 C3.375 -0.125 3.375 -0.125 7 0 C9 2 9 2 9.1953125 4.3828125 C9.17210937 5.28773437 9.14890625 6.19265625 9.125 7.125 C9.10695313 8.03507812 9.08890625 8.94515625 9.0703125 9.8828125 C9.04710937 10.58148438 9.02390625 11.28015625 9 12 C6 12 6 12 4.3125 10.5 C3.879375 10.005 3.44625 9.51 3 9 C3 9.99 3 10.98 3 12 C2.01 12 1.02 12 0 12 C0 8.04 0 4.08 0 0 Z " fill="#4867F4" transform="translate(346,97)"/>
<path d="M0 0 C1.32 0 2.64 0 4 0 C4.33 0.66 4.66 1.32 5 2 C5.66 1.34 6.32 0.68 7 0 C7.99 0 8.98 0 10 0 C9.649375 0.5775 9.29875 1.155 8.9375 1.75 C7.4665829 5.28020104 8.72750135 7.29470937 10.0625 10.75 C10.371875 11.4925 10.68125 12.235 11 13 C7.64404172 12.40072174 5.62198774 11.15377564 3 9 C3 9.99 3 10.98 3 12 C2.01 12 1.02 12 0 12 C0 8.04 0 4.08 0 0 Z " fill="#7088F5" transform="translate(436,97)"/>
<path d="M0 0 C1.44826172 -0.02126953 1.44826172 -0.02126953 2.92578125 -0.04296875 C5.70269158 0.18876776 7.32223141 0.76609156 9.6875 2.1875 C6.85193413 3.60528293 4.6966294 3.05007622 1.5625 2.75 C-0.37625 2.564375 -2.315 2.37875 -4.3125 2.1875 C-4.3125 8.7875 -4.3125 15.3875 -4.3125 22.1875 C-2.20875 21.919375 -0.105 21.65125 2.0625 21.375 C3.83753906 21.14876953 3.83753906 21.14876953 5.6484375 20.91796875 C8.98282084 20.48050666 8.98282084 20.48050666 10.6875 17.1875 C11.3475 17.5175 12.0075 17.8475 12.6875 18.1875 C11.04627293 20.71246473 10.29135345 21.76857412 7.6875 23.1875 C2.99409644 23.63929989 -1.6113206 23.47376938 -6.3125 23.1875 C-6.34137512 19.54168313 -6.35925585 15.89589537 -6.375 12.25 C-6.38337891 11.20908203 -6.39175781 10.16816406 -6.40039062 9.09570312 C-6.40522461 7.61166992 -6.40522461 7.61166992 -6.41015625 6.09765625 C-6.41539307 5.18121338 -6.42062988 4.26477051 -6.42602539 3.32055664 C-6.20287612 -0.87225015 -3.61053282 0.02391081 0 0 Z " fill="#F2F2F2" transform="translate(500.3125,10.8125)"/>
<path d="M0 0 C3.375 -0.125 3.375 -0.125 7 0 C9 2 9 2 9.1953125 4.3828125 C9.17210937 5.28773437 9.14890625 6.19265625 9.125 7.125 C9.10695312 8.03507812 9.08890625 8.94515625 9.0703125 9.8828125 C9.04710937 10.58148438 9.02390625 11.28015625 9 12 C8.01 11.67 7.02 11.34 6 11 C6 10.34 6 9.68 6 9 C5.01 9 4.02 9 3 9 C3 9.99 3 10.98 3 12 C2.01 12 1.02 12 0 12 C0 8.04 0 4.08 0 0 Z " fill="#5470F4" transform="translate(217,97)"/>
<path d="M0 0 C4.70441729 0.70065789 4.70441729 0.70065789 6.9375 2.4375 C7.6875 5.0625 7.6875 5.0625 7.9375 7.4375 C7.421875 6.7775 6.90625 6.1175 6.375 5.4375 C3.99662084 3.12209896 3.99662084 3.12209896 0.375 3 C-2.94263047 3.14283479 -2.94263047 3.14283479 -4.765625 4.671875 C-6.44821832 6.96263458 -6.37218281 8.31479544 -6.25 11.125 C-6.22292969 11.93324219 -6.19585938 12.74148437 -6.16796875 13.57421875 C-6.13316406 14.18910156 -6.09835938 14.80398437 -6.0625 15.4375 C-7.0525 15.4375 -8.0425 15.4375 -9.0625 15.4375 C-10.0525 16.0975 -11.0425 16.7575 -12.0625 17.4375 C-12.0625 12.4875 -12.0625 7.5375 -12.0625 2.4375 C-11.4025 2.4375 -10.7425 2.4375 -10.0625 2.4375 C-9.0725 3.9225 -9.0725 3.9225 -8.0625 5.4375 C-7.36125 4.6125 -6.66 3.7875 -5.9375 2.9375 C-3.0625 0.4375 -3.0625 0.4375 0 0 Z " fill="#F2F2F2" transform="translate(12.0625,15.5625)"/>
<path d="M0 0 C0.33 1.32 0.66 2.64 1 4 C1.66 3.67 2.32 3.34 3 3 C2.67 2.34 2.34 1.68 2 1 C5.3 1.99 8.6 2.98 12 4 C11.67 4.99 11.34 5.98 11 7 C8.36 6.67 5.72 6.34 3 6 C4.12109566 7.62493901 4.12109566 7.62493901 6 9 C9.95730595 9.42098999 12.60268371 9.09065618 16 7 C15 10 15 10 13 11 C5.53333333 11.35555556 5.53333333 11.35555556 2 9 C2 8.34 2 7.68 2 7 C1.34 7 0.68 7 0 7 C0 7.66 0 8.32 0 9 C-0.66 8.67 -1.32 8.34 -2 8 C-1.67 7.01 -1.34 6.02 -1 5 C-5.65052872 4.73067479 -5.65052872 4.73067479 -10 6 C-10 5.01 -10 4.02 -10 3 C-6.7 3 -3.4 3 0 3 C0 2.01 0 1.02 0 0 Z " fill="#EEEEEE" transform="translate(396,142)"/>
<path d="M0 0 C0.99 0 1.98 0 3 0 C3.33 2.97 3.66 5.94 4 9 C4.99 9.33 5.98 9.66 7 10 C7 6.7 7 3.4 7 0 C7.99 0 8.98 0 10 0 C10.02687279 1.81242052 10.04633715 3.62495233 10.0625 5.4375 C10.07410156 6.44683594 10.08570313 7.45617187 10.09765625 8.49609375 C10 11 10 11 9 12 C5.5625 12.1875 5.5625 12.1875 2 12 C0 10 0 10 -0.1953125 7.6171875 C-0.17210937 6.71226563 -0.14890625 5.80734375 -0.125 4.875 C-0.10695313 3.96492188 -0.08890625 3.05484375 -0.0703125 2.1171875 C-0.04710937 1.41851562 -0.02390625 0.71984375 0 0 Z " fill="#5471F4" transform="translate(327,97)"/>
<path d="M0 0 C3.82946843 1.45255699 5.12050295 3.42895561 7 7 C7.66 6.319375 8.32 5.63875 9 4.9375 C12.14418365 2.90688139 12.69209681 2.73662187 16.1875 3.125 C20 4 20 4 22 6 C21.67 6.99 21.34 7.98 21 9 C20.649375 8.505 20.29875 8.01 19.9375 7.5 C17.93833831 5.6970273 17.93833831 5.6970273 14.5 5.5 C10.9225504 5.6323465 10.9225504 5.6323465 9.0625 8.125 C7.89498388 11.28416126 7.76687491 13.65854032 8 17 C7.34 16.34 6.68 15.68 6 15 C4.68 15.99 3.36 16.98 2 18 C2.33 17.01 2.66 16.02 3 15 C3.50156459 9.30917105 3.7258549 4.65731863 0 0 Z " fill="#F1F1F1" transform="translate(203,13)"/>
<path d="M0 0 C5.28 0 10.56 0 16 0 C16 0.99 16 1.98 16 3 C15.236875 3.268125 14.47375 3.53625 13.6875 3.8125 C11.00787946 4.78263638 11.00787946 4.78263638 9.5625 6.5625 C7.15814394 8.77450758 5.21972498 8.87373628 2 9 C-1.375 7.5625 -1.375 7.5625 -4 6 C-3.67 5.34 -3.34 4.68 -3 4 C-1.515 4.99 -1.515 4.99 0 6 C3.54199641 6.41673207 3.54199641 6.41673207 7 6 C7.66 5.01 8.32 4.02 9 3 C6.36 3.33 3.72 3.66 1 4 C0.67 2.68 0.34 1.36 0 0 Z " fill="#F0F0F0" transform="translate(520,26)"/>
<path d="M0 0 C2.64 0 5.28 0 8 0 C7.34 0.66 6.68 1.32 6 2 C5.53993654 4.20250992 5.53993654 4.20250992 5.375 6.625 C5.30023438 7.44226563 5.22546875 8.25953125 5.1484375 9.1015625 C5.09945312 9.72804688 5.05046875 10.35453125 5 11 C4.34 11 3.68 11 3 11 C3.99 13.97 4.98 16.94 6 20 C1.91353132 15.91353132 0.26997296 11.40840868 -0.1875 5.6328125 C-0.1875 3.7541684 -0.1023194 1.87585564 0 0 Z " fill="#748FF2" transform="translate(32,23)"/>
<path d="M0 0 C1.32 0 2.64 0 4 0 C4 5.28 4 10.56 4 16 C2.68 16 1.36 16 0 16 C0 10.72 0 5.44 0 0 Z " fill="#FDFDFD" transform="translate(108,136)"/>
<path d="M0 0 C0.33 1.32 0.66 2.64 1 4 C1.66 3.67 2.32 3.34 3 3 C2.67 2.34 2.34 1.68 2 1 C5.3 1.99 8.6 2.98 12 4 C11.67 4.99 11.34 5.98 11 7 C7.97580475 6.41196203 4.98241547 5.77321882 2 5 C2 5.66 2 6.32 2 7 C1.01 7.33 0.02 7.66 -1 8 C-1 7.01 -1 6.02 -1 5 C-1.78375 5.165 -2.5675 5.33 -3.375 5.5 C-5.69845642 5.94256313 -7.65364357 6 -10 6 C-10 5.01 -10 4.02 -10 3 C-6.7 3 -3.4 3 0 3 C0 2.01 0 1.02 0 0 Z " fill="#EEEEEE" transform="translate(89,142)"/>
<path d="M0 0 C0 1.32 0 2.64 0 4 C-10.56 4 -21.12 4 -32 4 C-32 3.34 -32 2.68 -32 2 C-31.278125 2.020625 -30.55625 2.04125 -29.8125 2.0625 C-27.00141177 2.08588643 -27.00141177 2.08588643 -24.3125 1.4375 C-22 1 -22 1 -20 2 C-17.68993256 2.1230891 -15.37581364 2.1755634 -13.0625 2.1875 C-11.19271484 2.20876953 -11.19271484 2.20876953 -9.28515625 2.23046875 C-5.44764667 1.96124989 -3.81094548 0 0 0 Z " fill="#3656EF" transform="translate(166,135)"/>
<path d="M0 0 C2.99332739 0.9977758 3.94766315 1.7522025 6 4 C6.33 2.68 6.66 1.36 7 0 C7.99 0 8.98 0 10 0 C9.29666462 2.97722547 8.41751463 5.85256543 7.4375 8.75 C7.03337891 9.94882813 7.03337891 9.94882813 6.62109375 11.171875 C6.41613281 11.77515625 6.21117187 12.3784375 6 13 C5.01 13 4.02 13 3 13 C2.87625 11.906875 2.7525 10.81375 2.625 9.6875 C2.24535199 5.92618198 2.24535199 5.92618198 0 3 C0 2.01 0 1.02 0 0 Z " fill="#5572F4" transform="translate(290,97)"/>
<path d="M0 0 C5 1 5 1 6 2 C6.25 5.4375 6.25 5.4375 6 9 C3 11 3 11 0 11 C0 7.37 0 3.74 0 0 Z " fill="#FEFEFE" transform="translate(367,136)"/>
<path d="M0 0 C5 1 5 1 6 2 C6.1875 5.4375 6.1875 5.4375 6 9 C5.34 9.66 4.68 10.32 4 11 C2.68 11 1.36 11 0 11 C0 7.37 0 3.74 0 0 Z " fill="#FEFEFE" transform="translate(196,17)"/>
<path d="M0 0 C3.375 -0.125 3.375 -0.125 7 0 C7.66 0.66 8.32 1.32 9 2 C8.625 4.625 8.625 4.625 8 7 C5.36 7 2.72 7 0 7 C0 4.69 0 2.38 0 0 Z " fill="#D1D5E6" transform="translate(357,63)"/>
<path d="M0 0 C1.65 0.33 3.3 0.66 5 1 C5.6875 3.8125 5.6875 3.8125 6 7 C4.5625 8.875 4.5625 8.875 3 10 C1.68 9.34 0.36 8.68 -1 8 C-1.125 2.25 -1.125 2.25 0 0 Z " fill="#F1F1F1" transform="translate(488,139)"/>
<path d="M0 0 C2.125 0.375 2.125 0.375 4 1 C4.625 3.8125 4.625 3.8125 5 7 C4.01 8.485 4.01 8.485 3 10 C1.68 10 0.36 10 -1 10 C-2.38125018 7.23749964 -2.19079306 5.05268901 -2 2 C-1.34 1.34 -0.68 0.68 0 0 Z " fill="#F6F6F6" transform="translate(318,20)"/>
<path d="M0 0 C0.33 2.31 0.66 4.62 1 7 C0.01 7 -0.98 7 -2 7 C-2.86625 7.7425 -2.86625 7.7425 -3.75 8.5 C-6.95782854 10.63855236 -9.22358616 10.40461577 -13 10 C-15.4375 8.5 -15.4375 8.5 -17 7 C-16.67 6.34 -16.34 5.68 -16 5 C-15.484375 5.515625 -14.96875 6.03125 -14.4375 6.5625 C-11.95107865 8.31508365 -11.95107865 8.31508365 -8.375 7.9375 C-4.93009379 7.36680314 -4.93009379 7.36680314 -3.5625 4.9375 C-3.376875 4.298125 -3.19125 3.65875 -3 3 C-3.7425 3.515625 -4.485 4.03125 -5.25 4.5625 C-8 6 -8 6 -10.3125 5.6875 C-10.869375 5.460625 -11.42625 5.23375 -12 5 C-11.67 4.34 -11.34 3.68 -11 3 C-10.01 3.33 -9.02 3.66 -8 4 C-8 3.34 -8 2.68 -8 2 C-1.125 0 -1.125 0 0 0 Z " fill="#EFEFEF" transform="translate(483,143)"/>
<path d="M0 0 C0.99 0.33 1.98 0.66 3 1 C3.625 4.375 3.625 4.375 4 8 C3.34 8.66 2.68 9.32 2 10 C-1.53571429 9.46428571 -1.53571429 9.46428571 -3 8 C-3.25 5.0625 -3.25 5.0625 -3 2 C-2.01 1.34 -1.02 0.68 0 0 Z " fill="#F2F2F2" transform="translate(258,20)"/>
<path d="M0 0 C2.375 1.5 2.375 1.5 4 3 C3.67 3.99 3.34 4.98 3 6 C2.34 5.01 1.68 4.02 1 3 C-4.88489457 2.4459433 -4.88489457 2.4459433 -10 5 C-7.6853348 -0.12533009 -5.56888064 -0.44551045 0 0 Z M-5 4 C-1.65626525 4.55728913 1.03312999 5.35173889 4 7 C3.67 7.99 3.34 8.98 3 10 C0.36 9.01 -2.28 8.02 -5 7 C-5 6.01 -5 5.02 -5 4 Z " fill="#F1F1F1" transform="translate(237,16)"/>
<path d="M0 0 C3.53571429 0.53571429 3.53571429 0.53571429 5 2 C4.71269945 4.33944736 4.38063221 6.6739143 4 9 C2.33388095 9.042721 0.66617115 9.04063832 -1 9 C-2 8 -2 8 -2.1875 5.0625 C-2 2 -2 2 0 0 Z " fill="#F2F2F2" transform="translate(428,139)"/>
<path d="M0 0 C5.75 -0.125 5.75 -0.125 8 1 C8.042721 2.66611905 8.04063832 4.33382885 8 6 C7 7 7 7 3.4375 7.0625 C2.303125 7.041875 1.16875 7.02125 0 7 C0 4.69 0 2.38 0 0 Z " fill="#DBDEEC" transform="translate(205,63)"/>
<path d="M0 0 C1.485 0.99 1.485 0.99 3 2 C2.88628503 4.29225435 2.75869036 6.58382388 2.625 8.875 C2.52058594 10.78925781 2.52058594 10.78925781 2.4140625 12.7421875 C2 16 2 16 0 18 C-1.82116003 16.17883997 -1.1323508 13.69328236 -1.13671875 11.2734375 C-1.13285156 10.52320313 -1.12898438 9.77296875 -1.125 9 C-1.12886719 8.24976563 -1.13273437 7.49953125 -1.13671875 6.7265625 C-1.12661053 1.12661053 -1.12661053 1.12661053 0 0 Z " fill="#F6F6F6" transform="translate(439,135)"/>
<path d="M0 0 C3.0109362 2.0072908 3.63016497 2.83884224 5 6 C5.66 5.67 6.32 5.34 7 5 C6.125 12.625 6.125 12.625 5 16 C4.34 15.34 3.68 14.68 3 14 C2.01 15.32 1.02 16.64 0 18 C-0.66 17.67 -1.32 17.34 -2 17 C-1.505 16.525625 -1.01 16.05125 -0.5 15.5625 C1.99086345 11.30727494 1.55373521 6.44985879 0.484375 1.71875 C0.32453125 1.1515625 0.1646875 0.584375 0 0 Z " fill="#F1F1F1" transform="translate(376,133)"/>
<path d="M0 0 C2.875 -0.125 2.875 -0.125 6 0 C8 2 8 2 8.125 5.625 C8.08375 6.73875 8.0425 7.8525 8 9 C6.02 9.99 6.02 9.99 4 11 C3.01 10.34 2.02 9.68 1 9 C1.99 8.67 2.98 8.34 4 8 C4 6.35 4 4.7 4 3 C2.35 2.67 0.7 2.34 -1 2 C-0.67 1.34 -0.34 0.68 0 0 Z " fill="#4765F3" transform="translate(311,98)"/>
<path d="M0 0 C2.0625 0.4375 2.0625 0.4375 4 1 C4.33 2.65 4.66 4.3 5 6 C3.02 6.99 3.02 6.99 1 8 C0.01 7.34 -0.98 6.68 -2 6 C-1.125 1.125 -1.125 1.125 0 0 Z " fill="#F5F5F5" transform="translate(288,27)"/>
<path d="M0 0 C0.99 0 1.98 0 3 0 C3.33 1.65 3.66 3.3 4 5 C4.99 3.35 5.98 1.7 7 0 C7.99 0.33 8.98 0.66 10 1 C9.525625 1.598125 9.05125 2.19625 8.5625 2.8125 C6.83534256 5.00382924 6.83534256 5.00382924 6 8 C5.01 8 4.02 8 3 8 C2.67 9.32 2.34 10.64 2 12 C0.70756464 7.8803623 -0.26252625 4.33168317 0 0 Z " fill="#5C78F5" transform="translate(374,97)"/>
<path d="M0 0 C0.625 1.875 0.625 1.875 1 4 C0.34 4.66 -0.32 5.32 -1 6 C-3.625 5.625 -3.625 5.625 -6 5 C-6 3.35 -6 1.7 -6 0 C-3.50907189 -1.24546405 -2.58919267 -0.7767578 0 0 Z " fill="#F5F5F5" transform="translate(156,147)"/>
<path d="M0 0 C2.64 0 5.28 0 8 0 C8 1.65 8 3.3 8 5 C5.36 5 2.72 5 0 5 C0 3.35 0 1.7 0 0 Z " fill="#EAECF4" transform="translate(400,74)"/>
<path d="M0 0 C1.32 0 2.64 0 4 0 C4 3.3 4 6.6 4 10 C2.68 10 1.36 10 0 10 C0 6.7 0 3.4 0 0 Z " fill="#708CF5" transform="translate(41,23)"/>
<path d="M0 0 C2.0625 0.4375 2.0625 0.4375 4 1 C5.125 4.75 5.125 4.75 4 7 C1.03 6.505 1.03 6.505 -2 6 C-1.125 1.125 -1.125 1.125 0 0 Z " fill="#F5F5F5" transform="translate(459,146)"/>
<path d="M0 0 C1.32 0 2.64 0 4 0 C4 3.96 4 7.92 4 12 C3.01 12 2.02 12 1 12 C0.67 8.04 0.34 4.08 0 0 Z " fill="#FEFEFE" transform="translate(143,140)"/>
<path d="M0 0 C1.67542976 0.28604898 3.34385343 0.61781233 5 1 C5 2.65 5 4.3 5 6 C3.34385343 6.38218767 1.67542976 6.71395102 0 7 C-1 6 -1 6 -1.125 3.5 C-1 1 -1 1 0 0 Z " fill="#E8ECFD" transform="translate(402,100)"/>
<path d="M0 0 C1.67542976 0.28604898 3.34385343 0.61781233 5 1 C5 2.65 5 4.3 5 6 C3.34385343 6.38218767 1.67542976 6.71395102 0 7 C-1 6 -1 6 -1.125 3.5 C-1 1 -1 1 0 0 Z " fill="#E9EDFD" transform="translate(311,100)"/>
<path d="M0 0 C1.67542976 0.28604898 3.34385343 0.61781233 5 1 C5 2.65 5 4.3 5 6 C3.34385343 6.38218767 1.67542976 6.71395102 0 7 C-1 6 -1 6 -1.125 3.5 C-1 1 -1 1 0 0 Z " fill="#E8ECFD" transform="translate(239,100)"/>
<path d="M0 0 C1.32 0.33 2.64 0.66 4 1 C3.67 4.63 3.34 8.26 3 12 C2.01 12 1.02 12 0 12 C0 8.04 0 4.08 0 0 Z " fill="#FEFEFE" transform="translate(134,140)"/>
<path d="M0 0 C1.98 0 3.96 0 6 0 C5.67 1.98 5.34 3.96 5 6 C3.35 6.33 1.7 6.66 0 7 C0 4.69 0 2.38 0 0 Z " fill="#FEFEFE" transform="translate(60,140)"/>
<path d="M0 0 C1.32 0 2.64 0 4 0 C4 0.99 4 1.98 4 3 C3.01 3 2.02 3 1 3 C1 3.66 1 4.32 1 5 C1.66 5.33 2.32 5.66 3 6 C2.34 6 1.68 6 1 6 C1 7.32 1 8.64 1 10 C0.01 10 -0.98 10 -2 10 C-2 7.69 -2 5.38 -2 3 C-1.34 3 -0.68 3 0 3 C0 2.01 0 1.02 0 0 Z " fill="#7A90F6" transform="translate(421,100)"/>
<path d="M0 0 C1.32 0 2.64 0 4 0 C4 0.66 4 1.32 4 2 C4.66 2 5.32 2 6 2 C6 4.31 6 6.62 6 9 C5.01 8.67 4.02 8.34 3 8 C3 7.34 3 6.68 3 6 C2.01 5.67 1.02 5.34 0 5 C0 3.35 0 1.7 0 0 Z " fill="#7189F6" transform="translate(220,100)"/>
<path d="M0 0 C1.32 0 2.64 0 4 0 C4 2.97 4 5.94 4 9 C3.01 8.34 2.02 7.68 1 7 C0.01 8.32 -0.98 9.64 -2 11 C-2.66 10.67 -3.32 10.34 -4 10 C-3.525625 9.46375 -3.05125 8.9275 -2.5625 8.375 C-0.71813924 5.57157164 -0.37543153 3.30379742 0 0 Z " fill="#F0F0F0" transform="translate(71,140)"/>
<path d="M0 0 C3 0.25 3 0.25 5 2.25 C5.125 4.875 5.125 4.875 5 7.25 C4.443125 6.569375 3.88625 5.88875 3.3125 5.1875 C1.16722305 2.95698083 1.16722305 2.95698083 -1.625 3.3125 C-4.32289761 4.11655546 -4.32289761 4.11655546 -6 7.25 C-4.92 0.41 -4.92 0.41 0 0 Z " fill="#3C5CF3" transform="translate(405,97.75)"/>
<path d="M0 0 C0.66 1.32 1.32 2.64 2 4 C0.02 4 -1.96 4 -4 4 C-4 4.99 -4 5.98 -4 7 C-4.99 7 -5.98 7 -7 7 C-7 5.35 -7 3.7 -7 2 C-5.824375 1.7834375 -5.824375 1.7834375 -4.625 1.5625 C-2.03578982 1.12201075 -2.03578982 1.12201075 0 0 Z " fill="#E3E8FD" transform="translate(207,99)"/>
<path d="M0 0 C1.093125 0.226875 2.18625 0.45375 3.3125 0.6875 C2.9825 1.6775 2.6525 2.6675 2.3125 3.6875 C0.6625 3.6875 -0.9875 3.6875 -2.6875 3.6875 C-3.3475 5.0075 -4.0075 6.3275 -4.6875 7.6875 C-5.3475 6.0375 -6.0075 4.3875 -6.6875 2.6875 C-4.58035839 -0.41123767 -3.86755884 -0.32775922 0 0 Z " fill="#4E6CF4" transform="translate(203.6875,97.3125)"/>
<path d="M0 0 C0.99 0 1.98 0 3 0 C3 0.66 3 1.32 3 2 C4.98 2 6.96 2 9 2 C9 2.66 9 3.32 9 4 C3.375 6 3.375 6 0 6 C0 4.02 0 2.04 0 0 Z " fill="#FDFDFD" transform="translate(301,22)"/>
<path d="M0 0 C1 4 1 4 0 6 C-2.3125 6.1875 -2.3125 6.1875 -5 6 C-5.99 5.01 -6.98 4.02 -8 3 C-5.36 2.01 -2.72 1.02 0 0 Z " fill="#EFEFEF" transform="translate(125,149)"/>
<path d="M0 0 C0.99 0 1.98 0 3 0 C3.625 2.3125 3.625 2.3125 4 5 C3.01 6.485 3.01 6.485 2 8 C1.01 7.67 0.02 7.34 -1 7 C-1.04254356 5.00045254 -1.04080783 2.99958364 -1 1 C-0.67 0.67 -0.34 0.34 0 0 Z " fill="#F5F5F5" transform="translate(244,10)"/>
<path d="M0 0 C4.75 0.875 4.75 0.875 7 2 C7 1.34 7 0.68 7 0 C8.32 0 9.64 0 11 0 C11 0.99 11 1.98 11 3 C7.37 3 3.74 3 0 3 C0 2.01 0 1.02 0 0 Z " fill="#3F5EF2" transform="translate(119,136)"/>
<path d="M0 0 C3.375 -0.125 3.375 -0.125 7 0 C9 2 9 2 9.125 4.625 C9.08375 5.40875 9.0425 6.1925 9 7 C6.03 6.505 6.03 6.505 3 6 C3 5.01 3 4.02 3 3 C3.99 3 4.98 3 6 3 C6 2.34 6 1.68 6 1 C4.02 1 2.04 1 0 1 C0 0.67 0 0.34 0 0 Z " fill="#90A3F8" transform="translate(346,97)"/>
<path d="M0 0 C2.31 0 4.62 0 7 0 C7 1.32 7 2.64 7 4 C4.69 4 2.38 4 0 4 C0 2.68 0 1.36 0 0 Z " fill="#EBEDF4" transform="translate(400,64)"/>
<path d="M0 0 C3 0.3125 3 0.3125 6 1 C6.33 1.66 6.66 2.32 7 3 C2.71 3 -1.58 3 -6 3 C-6 2.34 -6 1.68 -6 1 C-4.7934375 1.0309375 -4.7934375 1.0309375 -3.5625 1.0625 C-1.06645115 1.29633621 -1.06645115 1.29633621 0 0 Z " fill="#4160F3" transform="translate(140,136)"/>
<path d="M0 0 C0.99 0.99 1.98 1.98 3 3 C2.34 4.65 1.68 6.3 1 8 C-1.31 8 -3.62 8 -6 8 C-4 5 -4 5 -1 4 C-0.26676204 1.98491642 -0.26676204 1.98491642 0 0 Z " fill="#6F87F6" transform="translate(407,102)"/>
<path d="M0 0 C3.37462715 0.54723683 5.08235 1.0549 8 3 C8 3.66 8 4.32 8 5 C5.36 4.34 2.72 3.68 0 3 C0 2.01 0 1.02 0 0 Z " fill="#F0F0F0" transform="translate(403,139)"/>
<path d="M0 0 C2.475 0.495 2.475 0.495 5 1 C5 2.32 5 3.64 5 5 C3.35 5 1.7 5 0 5 C0 3.35 0 1.7 0 0 Z " fill="#F7F7F7" transform="translate(415,129)"/>
<path d="M0 0 C2.475 0.495 2.475 0.495 5 1 C5 2.32 5 3.64 5 5 C3.35 5 1.7 5 0 5 C0 3.35 0 1.7 0 0 Z " fill="#F7F7F7" transform="translate(108,129)"/>
<path d="M0 0 C0.33 1.32 0.66 2.64 1 4 C1.99 4 2.98 4 4 4 C3.34 6.31 2.68 8.62 2 11 C1.34 11 0.68 11 0 11 C0 7.37 0 3.74 0 0 Z " fill="#3557F3" transform="translate(437,98)"/>
<path d="M0 0 C0.99 0 1.98 0 3 0 C3 1.98 3 3.96 3 6 C1.68 6 0.36 6 -1 6 C-1.042721 4.33388095 -1.04063832 2.66617115 -1 1 C-0.67 0.67 -0.34 0.34 0 0 Z " fill="#FDFDFD" transform="translate(489,141)"/>
<path d="M0 0 C0.99 0.33 1.98 0.66 3 1 C3 4.3 3 7.6 3 11 C3.99 11.33 4.98 11.66 6 12 C4.68 12 3.36 12 2 12 C1.34 8.04 0.68 4.08 0 0 Z " fill="#607BF5" transform="translate(255,98)"/>
<path d="M0 0 C0.99 0 1.98 0 3 0 C4.125 3.75 4.125 3.75 3 6 C2.01 6 1.02 6 0 6 C-1.125 2.25 -1.125 2.25 0 0 Z " fill="#FDFDFD" transform="translate(121,141)"/>
<path d="M0 0 C0.99 0 1.98 0 3 0 C2.34 3.63 1.68 7.26 1 11 C0.67 11 0.34 11 0 11 C0.020625 10.0925 0.04125 9.185 0.0625 8.25 C0.01073123 5.5580237 -0.33569365 3.56232449 -1 1 C-0.67 0.67 -0.34 0.34 0 0 Z " fill="#6D86F6" transform="translate(388,97)"/>
<path d="M0 0 C1.99954746 -0.04254356 4.00041636 -0.04080783 6 0 C7 1 7 1 7.0625 4.0625 C7.041875 5.031875 7.02125 6.00125 7 7 C6.4121875 6.0409375 6.4121875 6.0409375 5.8125 5.0625 C3.61527704 2.56221181 2.24208567 2.35049575 -1 2 C-0.67 1.34 -0.34 0.68 0 0 Z " fill="#3758F3" transform="translate(239,98)"/>
<path d="M0 0 C2.875 -0.1875 2.875 -0.1875 6 0 C6.66 0.99 7.32 1.98 8 3 C5.36 3 2.72 3 0 3 C0 2.01 0 1.02 0 0 Z " fill="#091D78" transform="translate(59,135)"/>
<path d="M0 0 C1.32 0 2.64 0 4 0 C4 1.65 4 3.3 4 5 C1.69 5 -0.62 5 -3 5 C-2.01 4.34 -1.02 3.68 0 3 C0 2.01 0 1.02 0 0 Z " fill="#3758F3" transform="translate(204,104)"/>
<path d="M0 0 C1.98 0 3.96 0 6 0 C6 0.66 6 1.32 6 2 C5.01 2.33 4.02 2.66 3 3 C2.67 3.99 2.34 4.98 2 6 C1.34 6 0.68 6 0 6 C0 4.02 0 2.04 0 0 Z " fill="#4464F3" transform="translate(419,97)"/>
<path d="M0 0 C1.65 0.33 3.3 0.66 5 1 C5 1.99 5 2.98 5 4 C3.02 4 1.04 4 -1 4 C-0.67 2.68 -0.34 1.36 0 0 Z " fill="#F2F2F2" transform="translate(216,20)"/>
<path d="M0 0 C0.33 0 0.66 0 1 0 C1.25 5.625 1.25 5.625 -1 9 C-1.99 8.67 -2.98 8.34 -4 8 C-2.25 2.25 -2.25 2.25 0 0 Z " fill="#4C6AF3" transform="translate(246,100)"/>
<path d="M0 0 C1.32 0 2.64 0 4 0 C4.66 2.64 5.32 5.28 6 8 C5.34 8 4.68 8 4 8 C3.67 8.66 3.34 9.32 3 10 C3 7.03 3 4.06 3 1 C2.01 0.67 1.02 0.34 0 0 Z " fill="#617CF5" transform="translate(261,97)"/>
<path d="M0 0 C0.28875 0.61875 0.5775 1.2375 0.875 1.875 C1.93720042 4.13325765 1.93720042 4.13325765 4 6 C3.01 6 2.02 6 1 6 C1.66 7.32 2.32 8.64 3 10 C2.01 9.67 1.02 9.34 0 9 C-0.87890625 2.84765625 -0.87890625 2.84765625 -1 1 C-0.67 0.67 -0.34 0.34 0 0 Z " fill="#F4F4F4" transform="translate(227,23)"/>
<path d="M0 0 C1.32 0.33 2.64 0.66 4 1 C4 1.99 4 2.98 4 4 C2.02 4 0.04 4 -2 4 C-1.34 2.68 -0.68 1.36 0 0 Z " fill="#F1F1F1" transform="translate(522,20)"/>
<path d="M0 0 C2.125 0.375 2.125 0.375 4 1 C3.67 1.99 3.34 2.98 3 4 C2.01 3.67 1.02 3.34 0 3 C0 4.98 0 6.96 0 9 C-0.66 8.67 -1.32 8.34 -2 8 C-2.125 5.125 -2.125 5.125 -2 2 C-1.34 1.34 -0.68 0.68 0 0 Z " fill="#F1F1F1" transform="translate(11,20)"/>
<path d="M0 0 C0.66 0 1.32 0 2 0 C2.33 1.98 2.66 3.96 3 6 C1.68 6 0.36 6 -1 6 C-0.67 4.02 -0.34 2.04 0 0 Z " fill="#7C92F6" transform="translate(425,104)"/>
<path d="M0 0 C0.66 0 1.32 0 2 0 C2.33 1.98 2.66 3.96 3 6 C1.68 6 0.36 6 -1 6 C-0.67 4.02 -0.34 2.04 0 0 Z " fill="#CFD3E5" transform="translate(331,68)"/>
<path d="M0 0 C0.99 0 1.98 0 3 0 C3 1.98 3 3.96 3 6 C2.01 6 1.02 6 0 6 C0 4.02 0 2.04 0 0 Z " fill="#FEFEFE" transform="translate(428,141)"/>
<path d="M0 0 C1.32 0.33 2.64 0.66 4 1 C4.33 2.32 4.66 3.64 5 5 C3.68 4.67 2.36 4.34 1 4 C0.67 2.68 0.34 1.36 0 0 Z " fill="#FCFCFC" transform="translate(168,137)"/>
<path d="M0 0 C1.32 0.33 2.64 0.66 4 1 C4 2.65 4 4.3 4 6 C3.01 6 2.02 6 1 6 C0.67 4.02 0.34 2.04 0 0 Z " fill="#3657F3" transform="translate(257,103)"/>
<path d="M0 0 C1.65 0 3.3 0 5 0 C5 0.66 5 1.32 5 2 C4.01 2 3.02 2 2 2 C2 3.32 2 4.64 2 6 C1.34 6 0.68 6 0 6 C0 4.02 0 2.04 0 0 Z " fill="#3A5AF3" transform="translate(347,98)"/>
<path d="M0 0 C1.2065625 0.0309375 1.2065625 0.0309375 2.4375 0.0625 C1.4784375 0.6503125 1.4784375 0.6503125 0.5 1.25 C-2.00028819 3.44722296 -2.21200425 4.82041433 -2.5625 8.0625 C-3.5525 7.0725 -4.5425 6.0825 -5.5625 5.0625 C-3.15007962 0.07683121 -3.15007962 0.07683121 0 0 Z " fill="#617BF5" transform="translate(240.5625,96.9375)"/>
<path d="M0 0 C1.5 1.3125 1.5 1.3125 3 3 C3 3.99 3 4.98 3 6 C1.68 6 0.36 6 -1 6 C-0.67 4.02 -0.34 2.04 0 0 Z " fill="#CDD1E4" transform="translate(430,68)"/>
<path d="M0 0 C1.04449911 3.13349732 0.93423645 3.98968256 0 7 C-0.99 7 -1.98 7 -3 7 C-3 5.68 -3 4.36 -3 3 C-2.34 3 -1.68 3 -1 3 C-0.67 2.01 -0.34 1.02 0 0 Z " fill="#3354F3" transform="translate(268,102)"/>
<path d="M0 0 C4.75 0.875 4.75 0.875 7 2 C6.34 3.32 5.68 4.64 5 6 C4.71125 5.360625 4.4225 4.72125 4.125 4.0625 C3.17176549 1.84793921 3.17176549 1.84793921 1 1 C0.67 1.66 0.34 2.32 0 3 C0 2.01 0 1.02 0 0 Z " fill="#BBC7FA" transform="translate(254,97)"/>
<path d="M0 0 C0.66 0.33 1.32 0.66 2 1 C-0.31 3.31 -2.62 5.62 -5 8 C-5 5 -5 5 -2.5 2.3125 C-1.675 1.549375 -0.85 0.78625 0 0 Z " fill="#374895" transform="translate(486,58)"/>
<path d="M0 0 C0.66 0 1.32 0 2 0 C2 1.98 2 3.96 2 6 C1.01 6 0.02 6 -1 6 C-1.042721 4.33388095 -1.04063832 2.66617115 -1 1 C-0.67 0.67 -0.34 0.34 0 0 Z " fill="#FEFEFE" transform="translate(258,22)"/>
</svg>
