<svg viewBox="0 0 239 43" xmlns="http://www.w3.org/2000/svg" data-logo="logo">
        <g transform="translate(0, 1.5) rotate(0)" id="logogram" style="opacity: 1;"><path fill="#394149" d="M40 13.4683C40.0001 10.7823 39.1891 8.1589 37.673 5.9417C36.1569 3.72451 34.0065 2.01688 31.5035 1.04252C29.0005 0.0681476 26.2615 -0.127534 23.6455 0.48109C21.0293 1.08971 18.658 2.47428 16.8421 4.45341H0V40H35.5601V23.3873C36.9557 22.139 38.0726 20.6104 38.8377 18.9012C39.6027 17.192 39.9988 15.3409 40 13.4683ZM33.1579 13.4683C33.1606 14.7553 32.7814 16.0143 32.0683 17.0858C31.3551 18.1572 30.3402 18.9931 29.1518 19.4874C27.9634 19.9819 26.6552 20.1127 25.3924 19.8631C24.1298 19.6137 22.9695 18.9953 22.0584 18.0861C21.1474 17.1769 20.5266 16.0179 20.2745 14.7557C20.0224 13.4936 20.1505 12.185 20.6424 10.9957C21.1343 9.80626 21.968 8.78957 23.0379 8.07423C24.108 7.35888 25.3661 6.97705 26.6532 6.97703C28.376 6.97703 30.0285 7.6605 31.2479 8.87745C32.4675 10.0944 33.1544 11.7455 33.1579 13.4683ZM28.7179 33.1579H6.84211V11.2955H13.5088C13.38 12.0128 13.3123 12.7397 13.3063 13.4683C13.31 17.007 14.7173 20.3997 17.2196 22.902C19.7217 25.4042 23.1144 26.8116 26.6532 26.8151C27.3451 26.8115 28.0355 26.7528 28.7179 26.6397V33.1579Z"></path></g>
        <g transform="translate(46, 1)" id="logotype" style="opacity: 1;"><path d="M13.52 33L8.31 33L8.31 7.54L18.24 7.54Q21.14 7.54 23.18 8.56Q25.21 9.59 26.28 11.45Q27.35 13.31 27.35 15.82L27.35 15.82Q27.35 18.34 26.26 20.16Q25.17 21.98 23.12 22.94Q21.06 23.91 18.12 23.91L18.12 23.91L11.38 23.91L11.38 19.69L17.28 19.69Q18.89 19.69 19.91 19.25Q20.94 18.82 21.45 17.95Q21.96 17.09 21.96 15.82L21.96 15.82Q21.96 14.53 21.45 13.65Q20.94 12.77 19.90 12.30Q18.87 11.84 17.26 11.84L17.26 11.84L13.52 11.84L13.52 33ZM28.25 33L22.47 33L16.27 21.41L21.93 21.41L28.25 33ZM37.44 33.38L37.44 33.38Q34.57 33.38 32.47 32.14Q30.37 30.90 29.23 28.68Q28.10 26.47 28.10 23.53L28.10 23.53Q28.10 20.56 29.23 18.35Q30.37 16.13 32.47 14.89Q34.57 13.65 37.44 13.65L37.44 13.65Q40.33 13.65 42.42 14.89Q44.52 16.13 45.65 18.35Q46.79 20.56 46.79 23.53L46.79 23.53Q46.79 26.47 45.65 28.68Q44.52 30.90 42.42 32.14Q40.33 33.38 37.44 33.38ZM37.44 29.34L37.44 29.34Q38.81 29.34 39.73 28.58Q40.66 27.82 41.12 26.50Q41.58 25.17 41.58 23.52L41.58 23.52Q41.58 21.82 41.12 20.51Q40.66 19.19 39.73 18.44Q38.81 17.69 37.44 17.69L37.44 17.69Q36.08 17.69 35.16 18.44Q34.25 19.19 33.79 20.51Q33.32 21.82 33.32 23.52L33.32 23.52Q33.32 25.17 33.79 26.50Q34.25 27.82 35.16 28.58Q36.08 29.34 37.44 29.34ZM63.90 33L47.95 33L47.95 29.89L57.37 18.17L57.37 18.03L48.24 18.03L48.24 13.89L63.57 13.89L63.57 17.29L54.68 28.73L54.68 28.86L63.90 28.86L63.90 33ZM74.34 40.55L74.34 40.55Q71.96 40.55 70.18 39.95Q68.41 39.34 67.30 38.28Q66.18 37.22 65.76 35.87L65.76 35.87L70.17 34.64Q70.41 35.17 70.91 35.67Q71.41 36.18 72.25 36.50Q73.09 36.83 74.32 36.83L74.32 36.83Q76.28 36.83 77.40 35.93Q78.52 35.03 78.52 33.14L78.52 33.14L78.52 29.62L78.13 29.62Q77.79 30.39 77.14 31.10Q76.49 31.82 75.44 32.27Q74.39 32.73 72.83 32.73L72.83 32.73Q70.68 32.73 68.92 31.72Q67.16 30.71 66.11 28.64Q65.06 26.57 65.06 23.41L65.06 23.41Q65.06 20.18 66.12 18.01Q67.19 15.84 68.96 14.75Q70.73 13.65 72.85 13.65L72.85 13.65Q74.46 13.65 75.55 14.19Q76.64 14.73 77.32 15.54Q77.99 16.35 78.34 17.11L78.34 17.11L78.56 17.11L78.56 13.89L83.60 13.89L83.60 32.85Q83.60 35.43 82.41 37.14Q81.22 38.86 79.14 39.71Q77.05 40.55 74.34 40.55ZM74.44 28.83L74.44 28.83Q75.75 28.83 76.67 28.18Q77.58 27.53 78.06 26.31Q78.54 25.09 78.54 23.38L78.54 23.38Q78.54 21.69 78.06 20.42Q77.58 19.16 76.67 18.46Q75.75 17.76 74.44 17.76L74.44 17.76Q73.09 17.76 72.17 18.48Q71.26 19.21 70.79 20.47Q70.32 21.74 70.32 23.38L70.32 23.38Q70.32 25.05 70.79 26.28Q71.26 27.50 72.18 28.16Q73.11 28.83 74.44 28.83ZM91.03 33.38L91.03 33.38Q89.22 33.38 87.78 32.74Q86.33 32.09 85.50 30.82Q84.67 29.55 84.67 27.65L84.67 27.65Q84.67 26.06 85.26 24.98Q85.85 23.91 86.87 23.26Q87.89 22.61 89.18 22.27Q90.47 21.93 91.89 21.79L91.89 21.79Q93.54 21.62 94.56 21.47Q95.58 21.33 96.05 21.01Q96.52 20.70 96.52 20.08L96.52 20.08L96.52 19.99Q96.52 19.17 96.17 18.61Q95.83 18.05 95.17 17.75Q94.50 17.45 93.53 17.45L93.53 17.45Q92.53 17.45 91.80 17.75Q91.07 18.05 90.60 18.54Q90.14 19.04 89.92 19.65L89.92 19.65L85.22 18.87Q85.72 17.21 86.86 16.05Q88.01 14.88 89.71 14.27Q91.41 13.65 93.53 13.65L93.53 13.65Q95.08 13.65 96.53 14.02Q97.99 14.39 99.14 15.16Q100.29 15.93 100.97 17.16Q101.64 18.39 101.64 20.13L101.64 20.13L101.64 33L96.79 33L96.79 30.35L96.62 30.35Q96.16 31.24 95.39 31.91Q94.62 32.59 93.53 32.98Q92.45 33.38 91.03 33.38ZM92.48 29.77L92.48 29.77Q93.70 29.77 94.61 29.29Q95.53 28.81 96.04 27.99Q96.55 27.17 96.55 26.16L96.55 26.16L96.55 24.10Q96.33 24.27 95.87 24.40Q95.41 24.54 94.84 24.64Q94.28 24.75 93.73 24.83Q93.18 24.92 92.76 24.97L92.76 24.97Q91.82 25.10 91.10 25.41Q90.38 25.72 89.99 26.22Q89.60 26.73 89.60 27.51L89.60 27.51Q89.60 28.25 89.97 28.75Q90.35 29.26 90.99 29.51Q91.63 29.77 92.48 29.77ZM108.87 33L103.74 33L103.74 13.89L108.70 13.89L108.70 17.23L108.90 17.23Q109.43 15.45 110.67 14.54Q111.91 13.64 113.52 13.64L113.52 13.64Q113.91 13.64 114.36 13.68Q114.82 13.72 115.18 13.81L115.18 13.81L115.18 18.39Q114.83 18.27 114.19 18.20Q113.54 18.13 112.96 18.13L112.96 18.13Q111.79 18.13 110.85 18.64Q109.91 19.14 109.39 20.04Q108.87 20.93 108.87 22.13L108.87 22.13L108.87 33ZM126.59 33L115.84 33L115.84 7.54L125.94 7.54Q128.74 7.54 130.62 8.38Q132.49 9.23 133.42 10.70Q134.35 12.17 134.35 14.08L134.35 14.08Q134.35 15.59 133.75 16.70Q133.15 17.82 132.12 18.53Q131.09 19.24 129.77 19.55L129.77 19.55L129.77 19.81Q131.20 19.86 132.48 20.62Q133.75 21.38 134.55 22.74Q135.34 24.10 135.34 25.99L135.34 25.99Q135.34 27.99 134.35 29.58Q133.36 31.17 131.42 32.09Q129.48 33 126.59 33L126.59 33ZM121.05 21.81L121.05 28.71L125.57 28.71Q127.86 28.71 128.91 27.82Q129.97 26.93 129.97 25.50L129.97 25.50Q129.97 24.40 129.45 23.57Q128.93 22.75 127.97 22.28Q127.02 21.81 125.70 21.81L125.70 21.81L121.05 21.81ZM121.05 11.79L121.05 18.23L125.17 18.23Q126.28 18.23 127.17 17.83Q128.06 17.43 128.56 16.69Q129.07 15.94 129.07 14.92L129.07 14.92Q129.07 13.53 128.09 12.66Q127.10 11.79 125.27 11.79L125.27 11.79L121.05 11.79ZM141.94 33.38L141.94 33.38Q140.12 33.38 138.68 32.74Q137.24 32.09 136.41 30.82Q135.58 29.55 135.58 27.65L135.58 27.65Q135.58 26.06 136.17 24.98Q136.76 23.91 137.77 23.26Q138.79 22.61 140.08 22.27Q141.37 21.93 142.79 21.79L142.79 21.79Q144.45 21.62 145.46 21.47Q146.48 21.33 146.95 21.01Q147.42 20.70 147.42 20.08L147.42 20.08L147.42 19.99Q147.42 19.17 147.08 18.61Q146.74 18.05 146.07 17.75Q145.40 17.45 144.43 17.45L144.43 17.45Q143.44 17.45 142.70 17.75Q141.97 18.05 141.51 18.54Q141.05 19.04 140.82 19.65L140.82 19.65L136.12 18.87Q136.62 17.21 137.77 16.05Q138.91 14.88 140.61 14.27Q142.31 13.65 144.43 13.65L144.43 13.65Q145.99 13.65 147.44 14.02Q148.89 14.39 150.04 15.16Q151.20 15.93 151.87 17.16Q152.55 18.39 152.55 20.13L152.55 20.13L152.55 33L147.69 33L147.69 30.35L147.52 30.35Q147.06 31.24 146.29 31.91Q145.52 32.59 144.44 32.98Q143.35 33.38 141.94 33.38ZM143.39 29.77L143.39 29.77Q144.60 29.77 145.52 29.29Q146.43 28.81 146.94 27.99Q147.46 27.17 147.46 26.16L147.46 26.16L147.46 24.10Q147.23 24.27 146.77 24.40Q146.31 24.54 145.75 24.64Q145.18 24.75 144.64 24.83Q144.09 24.92 143.66 24.97L143.66 24.97Q142.72 25.10 142.00 25.41Q141.29 25.72 140.89 26.22Q140.50 26.73 140.50 27.51L140.50 27.51Q140.50 28.25 140.88 28.75Q141.25 29.26 141.89 29.51Q142.53 29.77 143.39 29.77ZM159.78 21.94L159.78 21.94L159.78 33L154.65 33L154.65 13.89L159.48 13.89L159.57 18.66L159.26 18.66Q160.01 16.27 161.54 14.96Q163.07 13.65 165.50 13.65L165.50 13.65Q167.48 13.65 168.95 14.52Q170.42 15.38 171.24 17.00Q172.06 18.61 172.06 20.85L172.06 20.85L172.06 33L166.94 33L166.94 21.74Q166.94 19.96 166.02 18.95Q165.11 17.94 163.48 17.94L163.48 17.94Q162.41 17.94 161.56 18.41Q160.72 18.88 160.25 19.77Q159.78 20.66 159.78 21.94ZM182.71 33.38L182.71 33.38Q179.84 33.38 177.73 32.14Q175.63 30.90 174.50 28.68Q173.36 26.47 173.36 23.53L173.36 23.53Q173.36 20.56 174.50 18.35Q175.63 16.13 177.73 14.89Q179.84 13.65 182.71 13.65L182.71 13.65Q185.60 13.65 187.69 14.89Q189.78 16.13 190.92 18.35Q192.06 20.56 192.06 23.53L192.06 23.53Q192.06 26.47 190.92 28.68Q189.78 30.90 187.69 32.14Q185.60 33.38 182.71 33.38ZM182.71 29.34L182.71 29.34Q184.07 29.34 185.00 28.58Q185.92 27.82 186.38 26.50Q186.84 25.17 186.84 23.52L186.84 23.52Q186.84 21.82 186.38 20.51Q185.92 19.19 185.00 18.44Q184.07 17.69 182.71 17.69L182.71 17.69Q181.34 17.69 180.43 18.44Q179.51 19.19 179.05 20.51Q178.59 21.82 178.59 23.52L178.59 23.52Q178.59 25.17 179.05 26.50Q179.51 27.82 180.43 28.58Q181.34 29.34 182.71 29.34Z" fill="#ffffff"></path></g>
        
      </svg>